<?xml version="1.0" encoding="utf-8"?>
<!-- Generator: Adobe Illustrator 18.0.0, SVG Export Plug-In . SVG Version: 6.00 Build 0)  -->
<!DOCTYPE svg PUBLIC "-//W3C//DTD SVG 1.1//EN" "http://www.w3.org/Graphics/SVG/1.1/DTD/svg11.dtd">
<svg xmlns="http://www.w3.org/2000/svg" xmlns:xlink="http://www.w3.org/1999/xlink" version="1.1" id="Layer_1" x="0px" y="0px" viewBox="0 0 1700 1400" style="enable-background:new 0 0 1700 1400;" xml:space="preserve">
<style type="text/css">
	.st0{fill:#19D2E0;stroke:#E8E7E7;stroke-width:2;stroke-miterlimit:10;}
	.st1{fill:#0ABBBF;}
	.st2{fill:#9B4F1C;}
	.st3{fill:#B76730;}
	.st4{fill:#1E5621;}
	.st5{fill:#206023;}
	.st6{fill:#C96F32;}
	.st7{opacity:2.500000e-002;fill:#FFFFFF;}
	.st8{fill:#FFFFFF;}
	.st9{opacity:0.31;fill:#024929;}
	.st10{fill:#EEB48D;}
	.st11{fill:#F2E4B6;}
	.st12{fill:#FBC199;}
	.st13{fill:#381006;}
	.st14{fill:#4F0E0E;}
	.st15{fill:#681616;}
	.st16{fill:#771B1B;}
	.st17{fill:#4F1D0C;}
	.st18{fill:#E29C6E;}
	.st19{fill:#F6A098;}
	.st20{fill:#E2986A;}
	.st21{fill:none;stroke:#4C322C;stroke-width:6;stroke-miterlimit:10;}
	.st22{fill:#4C322C;}
</style>
<g>
	
</g>
<path class="st1" d="M1577.9,1042.2h-16.7V229c0-29.6-22.5-53.6-50.3-53.6H324.3c-19,0-35.5,11.2-44,27.6  c-10.9,10.2-17.7,25.2-17.7,41.8v797.2h-16.7c-5.7,0-10.3,4.9-10.3,11v13.1v44.5v1.2c0,6.1,4.6,11,10.3,11h1332.2  c5.7,0,10.3-4.9,10.3-11v-1.2v-44.5v-13.1C1588.3,1047.1,1583.6,1042.2,1577.9,1042.2z"/>
<g>
	<g>
		<path class="st2" d="M268.6,1065.7h1167c30.8,0,55.8-25,55.8-55.8V195.4c0-30.8-25-55.8-55.8-55.8h-1167    c-30.8,0-55.8,25-55.8,55.8v814.4C212.8,1040.7,237.8,1065.7,268.6,1065.7z"/>
		<path class="st3" d="M277.8,1052h1171.6c29.6,0,53.6-24,53.6-53.6V179.5c0-29.6-24-53.6-53.6-53.6H277.8    c-29.6,0-53.6,24-53.6,53.6v818.9C224.2,1028,248.2,1052,277.8,1052z"/>
		<g>
			<path class="st4" d="M312.3,267.2c0-22.9,17.3-41.5,38.7-41.5h1061.6c3.8,0,7.5,0.6,11,1.7c-4.7-17.2-19.6-29.7-37.1-29.7H324.9     c-21.4,0-38.7,18.6-38.7,41.5v707.8c0,18.8,11.7,34.7,27.7,39.8c-1-3.7-1.6-7.7-1.6-11.8V267.2z"/>
			<path class="st5" d="M1386.5,988.5c21.4,0,38.7-18.6,38.7-41.5V239.2c0-4.1-0.6-8-1.6-11.8c-3.5-1.1-7.2-1.7-11-1.7H351     c-21.4,0-38.7,18.6-38.7,41.5v707.8c0,4.1,0.6,8,1.6,11.8c3.5,1.1,7.2,1.7,11,1.7H1386.5z"/>
		</g>
	</g>
	<g>
		<path class="st2" d="M196.9,1073.4h1321.8c6.1,0,11-4.9,11-11v-58.7c0-6.1-4.9-11-11-11H196.9c-6.1,0-11,4.9-11,11v58.7    C185.9,1068.5,190.9,1073.4,196.9,1073.4z"/>
		<path class="st6" d="M196.9,1072.2h1321.8c6.1,0,11-4.9,11-11v-44.5c0-6.1-4.9-11-11-11H196.9c-6.1,0-11,4.9-11,11v44.5    C185.9,1067.3,190.9,1072.2,196.9,1072.2z"/>
	</g>
	<g>
		<path class="st7" d="M414.7,382.8c-13-20.2-15.8-52.2-6.4-76.9c11.2-29.6,37-40.5,56.2-22.8c16,14.8,31.6,30.3,46.9,46.6    c-3.9-17.1-3.2-36.3,3.1-52.9c5.4-14.2,14.3-24.8,24.5-29.2c11.2-4.8,21.5-1.4,31.6,6.4c54.9,42.3,106,95.2,154.1,154.2    c-4.5-7.9-9-15.8-13.6-23.8c-12.3-21.5-16.2-51.1-6.4-76.9c5.4-14.2,14.3-24.8,24.5-29.2c11.2-4.8,21.5-1.3,31.6,6.4    c92.7,70.2,175.8,167.9,252,274.5c8,11.2,15.9,22.4,23.7,33.8c-21.3-56.7-44.2-112-68.7-165.6c-10.8-23.7-21.9-47-33.2-70    c-3.7-9.9-5.6-20.6-5.6-32c0-16.8,4.4-33,12-44.9c13.3-20.5,33.6-23.8,49.8-9.9c90.1,77.1,174.3,171.1,250.6,278    c33.7,47.3,65.8,97.4,96,149.9c7.4,12.8,12,27.3,12,44.9c0,16.8-4.4,33-12,44.9c-15.1,23.4-43.2,25.8-58.1,0    c-50.2-87.1-105.3-167.2-164.6-239.5c18.7,51,36.2,103.1,52.3,156.2c11.2,37,21.7,74.5,31.8,112.3c2,11.2,2,22.5,0,33.7    c-2,10.7-5.5,20.1-10.6,28c-5.1,7.9-11.2,13.3-18.1,16.3c-7.3,3-14.6,3-21.8,0c-28.7-8.2-53.4-36.4-74.3-66.4    c-17.9-25.7-34.4-53.7-51.7-80.3c-31.8-48.9-64.6-96.5-98.6-141.7c7.5,20.4,14.4,41.2,20.8,62.4c12.1,40.7,22.6,82.7,29.9,126.2    c4.6,27.6-2.8,57.1-18.9,71.6c-15.5,14-37.3,10.9-49.8-9.9c-36.3-60.4-72.6-120.8-110.3-179.1c17.1,46.5,31.8,94.9,44.2,145    c2,11.2,2,22.5,0,33.7c-2.8,15.9-9.7,29.6-18.9,37.9c-15.3,13.8-37.5,11.1-49.8-9.9c-45.4-78.2-91-156.5-139.1-230.8    c3.2,11.1,6.3,22.2,9.3,33.5c9.4,35.2,17.6,71.1,24.7,107.6c4.2,21.6-0.4,46-10.6,61.7c-5.1,7.9-11.2,13.3-18.1,16.3    c-9.7,4.1-23.2,3.2-31.6-6.4c-64.5-72.8-123.3-156.4-174-251.8c-7.2-13.5-12-26.7-12-44.9c0-16.8,4.4-33,12-44.9    c7.7-11.8,18.2-18.6,29-18.6c10,0,22.5,6.2,29,18.6c3.5,6.5,7,12.9,10.5,19.3c-8.8-20.6-18.1-40.8-27.8-60.6    C454.7,448.6,435.3,414.8,414.7,382.8z"/>
		<path class="st7" d="M806.2,312.4c5.4-14.2,14.3-24.8,24.5-29.2c3.6-0.8,7.3-1.5,10.9-2.3c7.4,0,14.3,2.9,20.7,8.7    c42.5,29.2,84.3,61.1,125.1,95.6c-5.2-18.4-4.4-40.7,2.1-58c3.7-9.5,8.6-17.1,14.7-22.8c10-9,20.6-10,31.6-6.4    c43.7,14.2,85.7,36.6,126.7,64c38,25.4,74.2,57,108,93.8c12,13,23.6,26.9,35.1,40.9c8,9.8,12,29.7,12,44.9c0,16.8-4.4,33-12,44.9    c-7.7,11.8-18.2,18.6-29,18.6c-3.6-0.8-7.3-1.5-10.9-2.3c-7-3-13-8.5-18.1-16.3c-0.4-0.4-0.7-0.9-1.1-1.3    c-17.3-20.3-35.2-39.1-53.7-56.3c16.9,27.9,33.6,56.2,50,84.8c24.9,43.2,49.2,87.2,72.9,131.9c2.1,4.3,4.3,8.6,6.4,12.8    c3.7,9.9,5.6,20.6,5.6,32c0,16.8-4.4,33-12,44.9c-7.7,11.8-18.2,18.6-29,18.6c-11.3,0-20.8-7.1-29-18.6    c-30.1-41.9-61.3-82.1-93.3-120.5c-22.2-26.3-44.9-51.8-67.9-76.4c-0.6,15.8-4.7,31.4-11.9,42.5c-7.7,11.8-18.2,18.6-29,18.6    c-11.4,0-20.7-7.2-29-18.6c-71.3-97.2-142.7-194.4-214-291.5C798.9,370.6,797.3,335.8,806.2,312.4z"/>
		<path class="st7" d="M462.2,364.7c11.1-29.2,37.2-41,56.2-22.8c13.7,13.1,27.2,26.5,40.6,40.3c0.3-0.7,0.5-1.5,0.8-2.2    c3.7-9.5,8.6-17.1,14.7-22.8c8.7-7.9,21.9-12.3,31.6-6.4c27.8,16.7,54.7,36,80.9,57.8c0.9-14.6,5.1-28.5,11.8-38.9    c7.7-11.8,18.2-18.6,29-18.6c10.2,0,22.2,6.3,29,18.6c62.5,112,125.1,224.1,187.6,336.1c2.5,4.5,5,9,7.5,13.4    c7.3,13.1,12,27.1,12,44.9c0,16.8-4.4,33-12,44.9c-7.7,11.8-18.2,18.6-29,18.6c-11.4,0-20.7-7.2-29-18.6    c-15.2-20.9-30.5-41.7-45.8-62.3c14.9,31.6,29.2,63.7,43,96.4c10,23.8,6.2,57.4-6.4,76.9c-7.7,11.8-18.2,18.6-29,18.6    c-10.1,0-22.3-6.3-29-18.6c-16.3-29.9-33.1-59.1-50.3-87.6c-2,8.8-5.3,16.8-9.6,23.5c-5.1,7.9-11.2,13.3-18.1,16.3    c-11.3,4.8-21.4,1.2-31.6-6.4L697,851c-9.2-6.8-16.3-23.2-18.9-37.9c-1.2-6.6-1.6-13.5-1.4-20.3c-47.5-91.7-97.9-179.8-151-263.9    c-18.7-29.6-37.7-58.7-57.1-87.3C455.4,421.9,453.1,388.9,462.2,364.7z"/>
		<path class="st7" d="M335,477.1c2-3,4.2-5.8,6.6-8.1c-2.2-19.6,1.5-40.6,11.2-55.6c15.7-24.2,42.4-24.7,58.1,0    c64.4,101.6,128.2,203.9,182.7,318.7c3.9,8.3,7.8,16.7,11.6,25.1c3.7,9.9,5.6,20.6,5.6,32c0,16.8-4.4,33-12,44.9    c-15.5,24-42.6,25-58.1,0c-31.7-51.4-65.2-100-100.5-145.5c-11.1,6.2-23.8,5.5-34-5c-32.1-32.9-59.4-76.9-77.7-129.5    C319.8,528.7,321.6,497.8,335,477.1z"/>
		<path class="st7" d="M1056.9,311.1c13.2-20.3,33.7-24.1,49.8-9.9c37.4,32.9,72.5,72.4,104.8,116.2c32.5,44,61,93.8,87.1,147    c4.8,9.8,9.5,19.9,14,30c6,13.5,6.9,33.5,4.1,48.9c-2.8,15.9-9.7,29.6-18.9,37.9c-0.6,0.6-1.3,1.1-1.9,1.6    c3.9,8.1,7.9,16.2,11.8,24.3c6.3,12.9,6.8,34.1,4.1,48.9c-2.8,15.9-9.7,29.6-18.9,37.9c-9.5,8.6-21,10.9-31.6,6.4    c-3.3-2.1-6.5-4.3-9.8-6.4c-6.2-5.6-11.1-13.2-14.7-22.8c-57.5-118.3-115-236.5-172.6-354.8c-4.6-9.5-9.2-18.9-13.8-28.4    c-3.7-9.9-5.6-20.6-5.6-32C1044.8,339.2,1049.2,322.9,1056.9,311.1z"/>
		<path class="st7" d="M1199.2,309.3c5.7-32.2,29.2-55,50.5-44.3c3.8,1.9,7.6,4,11.4,6.3c8.8-1.7,19,0.4,25.8,8.2    c28.5,32.5,54.5,68.8,76.6,111.6c2.1,4.3,4.3,8.6,6.4,12.8c3.7,9.9,5.6,20.6,5.6,32c0,16.8-4.4,33-12,44.9    c-15.6,24.1-42.5,24.9-58.1,0c-14-22.4-28.1-44.7-43.8-64.3c-8.8-9.9-18.1-18.8-27.9-26c-1.9-1.1-3.9-2.2-5.9-3.2    c-10.3-5.2-19-14.4-24.5-29.2C1197.8,343.5,1196.3,325.7,1199.2,309.3z"/>
		<path class="st7" d="M758.9,320.8c13-20,33.9-24.5,49.8-9.9c27.8,25.6,55.1,52.5,81.8,80.8c1.6-11.2,5.2-21.9,10.9-30.8    c15.5-23.9,42.7-25.1,58.1,0c63,103,121.2,212.7,174.8,327.6c14.8,31.7,29.1,63.8,43.1,96.3c10.1,23.6,6.1,57.6-6.4,76.9    c-15.1,23.4-43.2,25.8-58.1,0c-46.1-80-95.8-155-148.6-224.4c20,37.8,40,75.5,60,113.3c5.1,7.9,8.6,17.2,10.6,28    c2.9,16.4,1.4,34.2-4.1,48.9c-9,23.6-29,38-46.4,29.2c-11.8-6-23.6-11.9-35.3-17.9c-10.3-5.2-19-14.4-24.5-29.2    c-5.6-14.6-7.1-32.5-4.1-48.9c0.3-1.7,0.7-3.4,1.1-5l-46.2-87.3c-15.2-28.7-30.3-57.3-45.5-86c-15.8-29.9-31.9-59.4-46.6-90.6    c-15.4-32.7-28.4-69.7-34.7-109.2C744.8,360.4,748.3,337.2,758.9,320.8z"/>
		<path class="st7" d="M435.4,395.6c7.7-11.8,18.2-18.6,29-18.6c11.5,0,20.6,7.2,29,18.6c3.5,4.7,7,9.4,10.5,14.1    c1.1-14,5.2-27.2,11.7-37.3c7.7-11.8,18.2-18.6,29-18.6c11.2,0,21,7,29,18.6c1.2,1.8,2.4,3.5,3.7,5.3c7.3-9,16.4-14,25.7-14    c9.9,0,22.5,6.2,29,18.6C687.1,485.6,742,589,796.8,692.3c2.1,4.3,4.3,8.6,6.4,12.8c3.7,9.9,5.6,20.6,5.6,32    c0,16.8-4.4,33-12,44.9c-7.7,11.8-18.2,18.6-29,18.6c-6.4,0-12.3-2.3-17.7-6.4c-2,8.7-5.3,16.7-9.6,23.3    c-7.7,11.8-18.2,18.6-29,18.6c-11.5,0-20.6-7.2-29-18.6c-8.7-11.7-17.5-23.5-26.2-35.2c2.5,6,5,12,7.5,18    c10,23.8,6.2,57.4-6.4,76.9c-7.7,11.8-18.2,18.6-29,18.6c-9.7,0-22.8-6.1-29-18.6c-12.3-24.4-24.7-48.8-37-73.2    c-2.1-4.3-4.3-8.6-6.4-12.8c-3.3-8.9-5.2-18.4-5.5-28.5c-37.8-90.5-75.6-181-113.5-271.4l-7.8-18.7    C419.1,448.7,422.8,415.1,435.4,395.6z"/>
		<path class="st7" d="M345.7,577c3.8-5.9,8.2-10.4,13-13.6c2.9-15.6,9.7-29.1,18.8-37.3c9.5-8.6,21-10.9,31.6-6.4    c9.6,4.1,20.1,14.9,24.5,29.2c16.5,53.1,38.3,101.7,61.4,148.4c7.9,15.7,15.9,31.2,23.9,46.7c2.1,4.3,4.3,8.6,6.4,12.8    c3.7,9.9,5.6,20.6,5.6,32c0,16.8-4.4,33-12,44.9c-7.7,11.8-18.2,18.6-29,18.6c-10.1,0-22.3-6.3-29-18.6c-2.3-4.2-4.6-8.4-7-12.6    c-8.7,6.1-18.6,7.3-27.9,3.4c-10.8-4.6-18.4-15.1-24.5-29.2c-20.8-47.2-41.5-94.3-62.3-141.5C328.9,630.5,333.3,596.1,345.7,577z"/>
		<path class="st7" d="M382.4,501.3c7.7-11.8,18.2-18.6,29-18.6c3.6,0.8,7.3,1.5,10.9,2.3c7,3,13,8.5,18.1,16.3l14.9,18.2L441.8,490    c-15.3-33.2-30.5-66.4-45.8-99.7c-8.3-18-6.9-45.8,0-64c3.7-9.5,8.6-17.1,14.7-22.8c8.7-7.8,21.9-12.3,31.6-6.4    c44,26.6,86.1,59.4,126.2,98c32.4,31.2,63.3,65.7,93.4,101.7c-0.2-0.3-0.3-0.7-0.5-1c-1.9-3.8-3.8-7.5-5.6-11.3    c-9-18-18.1-36-27.2-54c-5.1-7.9-8.6-17.2-10.6-28c-2.9-16.4-1.4-34.2,4.1-48.9c5.4-14.2,14.3-24.8,24.5-29.2    c11.1-4.7,21.6-1.5,31.6,6.4c13.8,10.9,27.5,22.4,40.9,34.3c0.2-4.2,0.6-8.4,1.3-12.4c2-10.7,5.5-20.1,10.6-28    c7-10.9,18.7-20.2,29-18.6c14.1,2.2,28.1,5.5,41.7,11.6c13.5,6,26.5,14.6,39.2,23.5c20.2,14.2,39.1,32.4,57.5,51.4    c29.4,30.3,58.4,61.8,87.1,93.7c-8.4-18-16.7-36.1-25.1-54.1c-2.9-6.4-5.9-12.7-8.8-19.1c-6.1-13.2-6.8-33.7-4.1-48.9    c2.8-15.9,9.7-29.6,18.9-37.9c9.5-8.6,21-10.9,31.6-6.4c11,4.7,18.1,15.2,24.5,29.2c58.9,127.3,117.8,254.6,176.7,381.9    c2.9,6.4,5.9,12.7,8.8,19.1c3.7,9.9,5.6,20.6,5.6,32c0,16.8-4.4,33-12,44.9c-7.7,11.8-18.2,18.6-29,18.6    c-3.6-0.8-7.3-1.5-10.9-2.3c-7-3-13-8.5-18.1-16.3c-13.2-16.1-26.4-32-39.7-47.9c-44.2-52.5-88.8-104-134-154.4    c3,5.8,6.1,11.6,9.1,17.4c15.9,30.7,31.4,61.8,46.6,93.4c3.7,9.9,5.6,20.6,5.6,32c0,16.8-4.4,33-12,44.9    c-7.7,11.8-18.2,18.6-29,18.6c-11.4,0-20.7-7.2-29-18.6c-44.6-60.9-89.3-121.7-135.7-179.3c9.4,22.7,18.6,45.6,27.3,69    c10.9,29,21.1,58.7,30.7,88.9c3.7,9.9,5.6,20.6,5.6,32c0,16.8-4.4,33-12,44.9c-7.7,11.8-18.2,18.6-29,18.6    c-11.5,0-20.6-7.2-29-18.6c-36.1-48.4-72.2-96.9-108.5-145.2c-32.5-43.3-65.3-86.2-99.3-126.9c-14.2-16.8-28.7-33.2-43.3-49    c24.9,54.3,49.9,108.7,74.8,163c15.3,33.2,30.5,66.4,45.8,99.7c3.7,9.9,5.6,20.6,5.6,32c0,16.8-4.4,33-12,44.9    c-7.7,11.8-18.2,18.6-29,18.6c-3.6-0.8-7.3-1.5-10.9-2.3c-7-3-13-8.5-18.1-16.3c-17.5-21.4-35-42.8-52.6-64.1    c-1.4,13.8-5.6,27.1-11.7,36.5c-16.1,24.9-41.9,23.8-58.1,0C480,826.4,458,794.2,436,762c-12.2-17.9-14.8-46-8.8-69.1    c-17.1-38.2-34.2-76.5-51.3-114.7C365.5,554.9,370,520.3,382.4,501.3z"/>
		<path class="st7" d="M1099.7,311.3c12.5-19.4,31-23,46.2-12.4c3.1-5.6,6.7-10.3,10.6-13.8c6.1-5.5,12.6-8.3,19.6-8.6    c0.2-0.6,0.4-1.2,0.7-1.9c5.4-14.2,14.3-24.8,24.5-29.2c11.2-4.8,21.5-1.3,31.6,6.4c30.6,23.2,58.9,55.3,83,92.6    c12.2,18.9,15,47.5,8.4,70.8c6.9,12.8,13.8,25.5,20.7,38.3c7.2,13.4,12,26.8,12,44.9c0,16.8-4.4,33-12,44.9    c-7.7,11.8-18.2,18.6-29,18.6c-11.4,0-20.7-7.2-29-18.6c-6-8.2-11.9-16.3-17.9-24.4c6,14.2,11.8,28.7,17.3,43.3    c11.4,29.8,4.5,69.4-14.7,86.8c-9.5,8.6-21,10.9-31.6,6.4c-11-4.7-18.1-15.2-24.5-29.2c-13.2-28.6-26.1-57.7-37.4-88.1    c-3.4-7.2-6.8-14.3-10.3-21.3c-20.9-41-43.6-79.6-68.1-115.6C1083.6,377.1,1084.2,335.3,1099.7,311.3z"/>
	</g>
</g>
<g>
	<g>
		<g>
			<g>
				<g>
					<g>
						<path class="st8" d="M769.2,344c0,0,0.1,0.1,0.2,0.1c0.1,0.1,0.2,0.1,0.2,0.1C769.6,343.9,769.6,343.7,769.2,344z"/>
						<path class="st8" d="M778.7,438.6c0,0,0.1,0.1,0.1,0.1C778.7,438.6,778.7,438.6,778.7,438.6z"/>
						<path class="st8" d="M766.8,368.3L766.8,368.3c-0.1,0.1-0.1,0.2-0.2,0.3L766.8,368.3z"/>
						<path class="st8" d="M765.1,368.4c0.5-0.1,0.7,0.7,0.6,1.4c0,0.7-0.3,1.4,0.1,0.4c0,0.2,0.2-0.3,0.6-1.1        c0.2-0.3,0.3-0.6,0.4-0.8c1.1-2.2,1.1-2,1-1.8c-0.1,0.3-0.1,0.5,0.7-0.9l-1.2,2.2c0.6-1,1-1.5,0.3-0.3l-0.3,0.6        c0.9-1.3,0.3-0.3,0.7-0.9l-0.3,0.5l0.1,0l-0.5,0.7c0.9-1.1,0.9-0.7,0.5,0l1.3-1.6c-0.8,1.3-0.5,1.1-0.2,1.1        c0.2,0,0.4,0.2-0.4,1.1l-0.3,0.2c0.8-0.4,1-0.3,1,0c0,0.2-0.3,0.6-0.6,0.9c-0.3,0.3-0.6,0.5-0.6,0.7c0,0.2,0.2,0.3,0.9,0.5        c-0.4-0.1-0.6,0-0.9,0c0,0.1,0.1,0.1,0.1,0.2c0,0.2,0.1,0.4,0.1,0.6c0.1,0.4,0.2,0.8,0.3,1.1c0.3,0.6,0.9,1.1,2,1.2        c-0.1,1.1-0.8,0.9-1.7,0.9c1,0.1,1.3,1.1,1.3,2l-0.3-0.4l0.1,2.6l1.9-0.4c-0.6,1.3-2.3,0.2-2,1.5l1.6,0.1        c-0.4,1.8-2.9,2.8-4.2,4.5c-1.2,7.5,2.3,15.8-0.7,22.7l-1.2,0.3c-1.7,0.1,2.5,2,0.9,2.2l0.7,0.8c-0.3,0.2-0.7,0.7-1,0.3        c-0.1,0.7,0.2,0.8,0.7,1.3l-1.1,0.8c-1,2.9,1,5.5,0.5,8.6c-2.3,3.7-0.6,10.8,0.4,14.9c2.3,5.8-4.8,12.1-2.1,18        c-0.3,0.2,0.3,0.7,0.5,0.7l-0.5,5.3c0,0-0.1,1.6-0.1,3.7c0,2.1,0.3,4.7,0.9,6.8c1.4,4.1,4.7,5.9,12.3-3.6l0.4,0.2        c1.1-2.9,1.4-4.7-0.4-6.8c2.3-0.2,0.4-2.4,1.1-3l0.2,0.1c-1.7-1.9,1.7-3.6,0.1-5.4c0.2,0.1,0.8,0.1,0.8,0.5        c-0.2-1.3-0.7-3,0.7-3c-0.2-3,0.6-7.2-1.5-9.2l0.4,0.1c-1.4-1.2-0.2-1.4-0.8-2.7c0.2-0.1,0.3-0.1,0.3-0.1        c-1.4-1.2-0.1-3.5-0.7-4.5l0.9,0l-0.1-2.4l-0.2,0.9c-2.4-0.4,1.6-1.7,0.1-3.5c0.4-1.6-5-3.5-3.7-5.1c-1.1-0.8,1.8,0.8,1-0.5        c1.3,0,0.8,0.6,1.8,0.3c-0.6-1.2,1.4-1.9,0.6-3.3l1,0c-1.7-1.9,1.4-3.5-0.2-4.8c-0.7-2,3-1.2,1.2-3.3l1.4-0.7        c0.3-0.8-1.6-0.7-0.9-1.6c0.8,0.1,0.7-1.2,1.5-0.6c1.4-2.1-1.7-4.5,0.7-7.2c-1.6-0.7-0.6-2.1-1.8-2.6c0.7,0,0.3-2.8,1.7-1.2        c0.1,0.1,0.1,0.4-0.2,0.4l1,0.2c1.9-1.5-0.8-3-0.5-4.6c-0.4,0.5-0.3,1.1-0.9,0.6l0.2-1.5l0.8,0.4l0.6-2.2l-1,0.2        c0.6-1,2.3-1.3,1-2.6c-0.8-0.6-1.4,0.9-1.7-0.2c0.8-1.4,2-3.5,2.4-5.3c-1.2,0.1-1.1-0.4-1.3-0.9l1,0c-1.2-2.1,2.2-0.5,1.3-2.6        l0.7,0.2l-2-0.7c-1.8-1.9,2.1-0.8-0.4-2.9c0.1,0.8-2.2,0.2-1.7-0.7l0.9,0.3c-0.2-0.5-0.5-0.7-0.3-1.1c0.5,0.4,1.4,0.3,1.3-0.5        l1.2,0.6l-1.6-1.6c0.3-0.3,0.4-0.6,0.5-0.9c0-0.2,0.1-0.3,0.1-0.5c0-0.3,0-0.6,0.1-0.8c0.1-1.1,0.2-2.1,0.9-2.6        c0,0,0.3-1.1,0.4-2.3c0.1-1.2,0-2.5-0.7-2.7c0.9,0.6,1.5-2,2.6-1.8c-0.5-0.4-0.9-1.3-1-2.4c-0.1-1,0.1-2.2,0.8-3.3l0.1,0.2        c0.9-3,0.7-5,0.5-6.8c-0.1-1.8-0.3-3.3,0.8-6.6c-1.4,1.8-0.4-1.4-2.2,1.3c-0.3-0.5-0.2-1.5,0.1-2.7c0.3-1.2,0.7-2.6,1-3.7        c0.6-2.3,0.8-3.7-2,0.1c-0.1-1.3,1.6-4.4,2-5.9l0.3-0.1c0-2.8,0-3.7,0.5-6.6c-0.4-0.2-3.2,5.3-2.3,1.8        c0.5-0.8,0.8-1.4,0.9-1.8c0.1-0.2,0.1-0.4,0.1-0.5c0-0.1-0.1-0.1-0.1-0.2c0.3-0.2,0.7-0.9,1.3-3.2c-0.4,0.7-0.6,1.1-0.8,1.4        c0.1-0.2,0.2-0.4,0.3-0.7c-0.6,0.3-1,1.3-1,1.9c-0.2,0.4-0.4,0.9-0.7,1.7c0.5-1.3,0.5-1.9,0.5-2.3c-0.7,0.8-1.8,2.3-0.6-0.7        c-1.8,2.5-3.8,5.6-5.6,8.4c-1.8,2.9-3.4,5.6-4.8,7.6c0.3-1.5,1.4-3.8,2.4-5.5l-2.1,2.9c0.8-2.6,1.6-2.8,2.4-4        c-0.5-0.8-2.2,1.9-3.7,4.3c-1.5,2.5-2.9,4.8-4,4.8l-0.8,2.2l-0.1-0.1c-0.1,0.8-0.8,2.5-1.2,3.1c-0.1-1.2,0.5-3.7-0.9-2.1        c-0.5-0.2-1.2,0.9-2,2.1c-0.8,1.3-1.5,2.7-2.1,3.6c0.7-0.5,0.5,0.4,0.3,1.1c-0.6,0.6-1.1-0.2-1.4,0.7l-0.3-1.4        c0.5,1.2-1.3,3-1.3,3.7c-0.6-0.7,0.7-1.7,0.6-2.7c-1.2,1.3-1.6,1.6-1.9,1.9c-0.3,0.3-0.6,0.6-1.9,1.8c-0.4,1-0.2,1.2,0.1,1.4        c0.3,0.2,0.7,0.3,0.7,1c-0.5,0.6-0.8,1.3-1.2,1.8c-0.1,0.1-0.2,0.3-0.3,0.4c-0.1,0.1-0.2,0.2-0.3,0.3        c-0.2,0.2-0.5,0.3-0.8,0.3l1,0.6c-0.9,1.9-2,2.6-3.7,2.5c-1.4,4.1-2,6.8-1.9,8.7c0.1,1.9,0.9,2.9,2,3.3c1,0.5,2.3,0.4,3.3,0.2        c1-0.2,1.7-0.5,1.7-0.5c3.2-0.9,4.9-2.5,6.5-4.6c0.2-0.3,0.4-0.5,0.6-0.8c0-0.1,0.1-0.2,0.1-0.2l0,0c0,0,0-0.1-0.1-0.1        c-0.1-0.2-0.1-0.4-0.2-0.6C764.8,369.5,764.8,368.9,765.1,368.4z"/>
					</g>
				</g>
			</g>
		</g>
	</g>
	<g>
		<g>
			<g>
				<g>
					<g>
						<path class="st8" d="M747.6,468l0.2,0.5C747.8,468.2,747.7,468,747.6,468z"/>
						<path class="st8" d="M787.3,468.3c0,0,0-0.1,0-0.1C787.3,468.2,787.3,468.2,787.3,468.3z"/>
						<path class="st8" d="M753.5,483.7C753.5,483.7,753.5,483.7,753.5,483.7c0,0,0,0.1-0.1,0.1L753.5,483.7z"/>
						<path class="st8" d="M745.5,482.4c2.1,0.6,2.6,2.8,4.8,1.9c1,0.2,2.1-0.3,3.2-0.6c0.5-1.7,1.3,0,1.9-1.4l0.2,1        c0.2-0.5,0.4-0.8,0.6-0.3l0,0.3c0.3-0.7,0.6-0.3,0.8-0.6l0,0.3l0.4-0.1l-0.1,0.4c0.5-0.8,1-0.8,1.5-0.5l0-1.2        c1,1.3,1.4-1.1,2.2,0.5l0,0.3c1.2-3.1,1.8,2.1,3-0.8c-0.1,0.4,0.1,0.6,0,0.9c0.5-0.3,1.1-0.5,1.2-2.8c0.4,0,0.3,0.7,0.4,1.6        c0-1,0.4-1.4,0.7-1.5l-0.1,0.4l0.9-0.3l-0.2-1.9c0.5,0.5,0.1,2.3,0.5,1.8l0-1.6c0.6,0.3,1,2.7,1.6,3.8        c2.6,0.7,5.4-3.3,7.8-0.5l0.1,1.2c0,1.7,0.7-2.5,0.8-0.9l0.3-0.8c0.1,0.3,0.2,0.6,0.1,1c0.3,0.1,0.3-0.2,0.5-0.7l0.3,1.1        c1,0.8,1.9-1.2,3-0.8c1.3,2.2,3.7,0.2,5.1-0.9c2-2.5,4.2,4.3,6.3,1.4c0.1,0.2,0.2-0.3,0.2-0.5l1.8,0.3c0,0,8.9,0.8,2.3-13.5        l0-0.4c-1-0.9-1.6-1.1-2.3,0.7c-0.1-2.3-0.8-0.2-1.1-1l0-0.2c-0.6,1.8-1.3-1.5-1.9,0.1c0-0.2,0-0.8,0.2-0.9        c-0.4,0.3-1,0.8-1-0.5c-1,0.3-2.5-0.3-3.2,1.8l0-0.4c-0.4,1.4-0.5,0.2-0.9,0.9c0-0.2,0-0.3,0-0.3c-0.4,1.4-1.2,0.2-1.5,0.8        l0-0.9l-0.8,0.2l0.3,0.2c-0.1,2.4-0.6-1.5-1.2,0c-0.6-0.3-1.2,5.1-1.7,3.9c-0.3,1.1,0.3-1.9-0.2-1c0-1.3,0.2-0.8,0.1-1.8        c-0.4,0.6-0.6-1.3-1.2-0.5l0-1c-0.7,1.8-1.2-1.3-1.7,0.4c-0.7,0.8-0.4-3-1.1-1l-0.3-1.3c-0.3-0.2-0.2,1.6-0.6,1        c0-0.8-0.4-0.7-0.2-1.5c-0.7-1.3-1.5,1.9-2.5-0.4c-0.2,1.6-0.7,0.7-0.9,1.9c0-0.7-1-0.1-0.4-1.7c0-0.1,0.1-0.1,0.1,0.2l0.1-1        c-0.5-1.9-1,1-1.6,0.7c0.2,0.3,0.4,0.2,0.2,0.9l-0.5-0.1l0.1-0.8l-0.8-0.5l0.1,1c-0.4-0.5-0.5-2.3-0.9-0.8        c-0.2,0.8,0.3,1.4-0.1,1.7c-0.5-0.7-1.2-1.8-1.9-2.1c0,1.1-0.1,1.1-0.3,1.3l0-1c-0.7,1.4-0.2-2.2-0.9-1.1l0.1-0.7l-0.2,2.1        c-0.6,2-0.3-2.1-1,0.6c0.3-0.2,0.1,2.2-0.2,1.8l0.1-1c-0.2,0.2-0.3,0.6-0.4,0.4c0.1-0.5,0.1-1.4-0.2-1.2l0.2-1.2l-0.5,1.8        c-0.4-1-1,0.3-1.2-1.1c0,0-0.8-0.7-1,0.8c0.2-0.9-0.3-1.3-0.1-2.4c-0.2,1-0.9,1.9-1.1,0.8l0.1-0.1c-0.9-1.1-1.7,1.5-2.5,0.1        c0,1.2-0.4,0.5-0.3,2c-0.9,1.5-1.6-3-2,1.5c-0.4,0.2-0.5-1.1-0.7-1.3l0.1-0.2c-0.8,0.4-1,0.4-1.5,0.3c-0.3,0.4-0.4,2.6-0.9,2        c0.2-0.8,0-0.7-0.2-0.7c0.1-0.1,0.2-0.4-0.1-1c0,0.3-0.1,0.4-0.1,0.6c0-0.1,0-0.1,0-0.2c-0.3,0.3-0.3,0.6-0.1,0.7        c0,0.1,0,0.3,0,0.5c-0.3-1.1-0.9,0.1-0.9-1.4c-0.9,0.3-1.6,1.8-2.4,2.4c-0.1-0.7,0.1-1.4,0.3-1.7l-0.6,0.3        c0-1.1,0.3-0.6,0.5-0.8c-0.6-1.7-1.4,1.7-2.1,0.1l-0.2,0.8l0-0.1c0,0.4-0.2,1.1-0.3,1.2c-0.1-0.9,0-2.2-0.4-2.1        c-0.3-0.9-0.9,0.4-1.3,0.9c0.2,0.2,0.1,0.7,0,1c-0.2,0-0.3-0.9-0.4-0.5l0-1.3c0.1,1.2-0.5,1.3-0.6,1.8        c-0.1-0.9,0.3-0.8,0.4-1.5c-0.8,0.1-0.4,0.1-1.2,0.2c-0.4,0.9,0.1,1.2-0.1,2.3c-0.4,0.2-0.7,1.1-1.1,0.4l0.1,1.1        c-0.7,0.9-1.1,0.7-1.5-0.4c-5.2,9.1-1.2,12.4-1.2,12.4C742.1,486.5,743.1,483.2,745.5,482.4z"/>
					</g>
				</g>
			</g>
		</g>
	</g>
	<g>
		<g>
			<g>
				<g>
					<g>
						<path class="st8" d="M849.1,401.4l0.2,0.5C849.3,401.6,849.2,401.4,849.1,401.4z"/>
						<path class="st8" d="M901.1,399.7c0,0,0-0.1,0-0.1C901.1,399.7,901.1,399.7,901.1,399.7z"/>
						<path class="st8" d="M857.5,416.8C857.5,416.8,857.5,416.8,857.5,416.8c0,0,0,0.1-0.1,0.1L857.5,416.8z"/>
						<path class="st8" d="M847,415.8c2.8,0.5,3.6,2.6,6.4,1.7c1.4,0.1,2.8-0.4,4.1-0.7c0.6-1.7,1.7-0.1,2.5-1.5l0.3,0.9        c0.2-0.5,0.5-0.8,0.8-0.3l0,0.3c0.4-0.7,0.8-0.3,1-0.7l0,0.3l0.5-0.1l-0.1,0.4c0.6-0.8,1.3-0.9,2-0.5l-0.1-1.2        c1.3,1.3,1.7-1.2,3,0.3l0,0.3c1.4-3.1,2.4,2,3.9-0.9c-0.2,0.4,0.1,0.6,0.1,0.9c0.7-0.4,1.4-0.5,1.4-2.8c0.5,0,0.4,0.7,0.5,1.6        c0-1,0.4-1.4,0.8-1.5l-0.2,0.4l1.1-0.4l-0.3-1.9c0.6,0.5,0.2,2.3,0.8,1.8l-0.1-1.6c0.9,0.3,1.4,2.6,2.3,3.8        c3.4,0.6,6.9-3.5,10.2-0.8l0.2,1.2c0.1,1.7,0.8-2.6,1-1l0.3-0.8c0.1,0.3,0.3,0.6,0.2,1c0.3,0.1,0.3-0.2,0.6-0.7l0.4,1.1        c1.4,0.8,2.4-1.3,3.9-0.9c1.8,2.1,4.9,0,6.7-1.2c2.5-2.6,5.7,4.1,8.3,1.1c0.1,0.2,0.3-0.3,0.3-0.5l2.4,0.2        c0,0,11.7,0.3,2.4-13.6l0-0.4c-1.3-0.9-2.2-1-3,0.9c-0.2-2.3-1.1-0.2-1.4-0.9l0-0.2c-0.8,1.8-1.7-1.4-2.4,0.2        c0-0.2,0-0.8,0.2-0.9c-0.6,0.3-1.3,0.8-1.4-0.5c-1.3,0.4-3.3-0.2-4.1,2l0-0.4c-0.5,1.5-0.6,0.2-1.2,1c0-0.2-0.1-0.3-0.1-0.3        c-0.5,1.4-1.6,0.3-2,0.9l-0.1-0.9L898,400l0.4,0.2c-0.1,2.5-0.9-1.5-1.6,0.1c-0.7-0.3-1.3,5.1-2.1,4c-0.3,1.2,0.3-1.9-0.2-1        c-0.1-1.3,0.2-0.8,0.1-1.8c-0.5,0.6-0.9-1.3-1.5-0.4l-0.1-1c-0.8,1.8-1.6-1.3-2.2,0.5c-0.9,0.8-0.7-2.9-1.5-1l-0.4-1.3        c-0.4-0.2-0.2,1.7-0.7,1c0-0.8-0.6-0.7-0.3-1.5c-1-1.3-1.9,1.9-3.3-0.3c-0.2,1.7-0.9,0.7-1.1,1.9c-0.1-0.7-1.3-0.1-0.6-1.7        c0.1-0.1,0.2-0.1,0.2,0.2l0.1-1c-0.8-1.8-1.3,1.1-2,0.8c0.2,0.3,0.5,0.2,0.3,0.9l-0.7-0.1l0.1-0.8l-1-0.5l0.2,1        c-0.5-0.5-0.7-2.2-1.2-0.8c-0.2,0.8,0.5,1.4,0,1.7c-0.7-0.7-1.7-1.7-2.6-2c0.1,1.1-0.1,1.1-0.3,1.3l-0.1-1        c-0.9,1.4-0.4-2.2-1.2-1.1l0.1-0.7l-0.2,2.1c-0.7,2-0.5-2.1-1.3,0.7c0.3-0.2,0.2,2.2-0.2,1.8l0.1-1c-0.2,0.2-0.3,0.6-0.5,0.4        c0.1-0.5,0-1.4-0.3-1.2l0.2-1.2l-0.6,1.8c-0.5-1-1.3,0.3-1.6-1c0,0-1.1-0.6-1.3,0.9c0.2-0.9-0.4-1.3-0.3-2.3        c-0.3,1.1-1.1,1.9-1.5,0.8l0.1-0.1c-1.3-1.1-2.1,1.6-3.3,0.3c0.1,1.2-0.5,0.5-0.3,2c-1.1,1.5-2.2-2.9-2.5,1.6        c-0.5,0.3-0.7-1.1-0.9-1.3l0.1-0.2c-1,0.4-1.3,0.5-2,0.4c-0.4,0.5-0.4,2.6-1,2.1c0.2-0.8-0.1-0.7-0.3-0.7        c0.2-0.1,0.2-0.4-0.1-1c0,0.3-0.1,0.4-0.2,0.6c0-0.1,0-0.1,0-0.2c-0.4,0.3-0.3,0.6-0.1,0.7c0,0.1,0,0.3,0.1,0.5        c-0.5-1.1-1.2,0.1-1.3-1.3c-1.2,0.4-2.1,1.9-3.1,2.5c-0.1-0.7,0.1-1.4,0.4-1.7l-0.7,0.3c0-1.1,0.4-0.6,0.6-0.8        c-0.9-1.7-1.7,1.8-2.8,0.2l-0.2,0.9l-0.1-0.1c0,0.4-0.2,1.1-0.3,1.2c-0.2-0.9,0-2.2-0.6-2.1c-0.4-0.9-1.1,0.5-1.6,1        c0.3,0.1,0.2,0.7,0.1,1c-0.3,0-0.4-0.9-0.6-0.5l-0.1-1.3c0.1,1.2-0.6,1.3-0.7,1.8c-0.2-0.9,0.4-0.8,0.4-1.5        c-1,0.1-0.5,0.1-1.5,0.2c-0.5,1,0.1,1.2-0.1,2.3c-0.5,0.3-0.9,1.2-1.5,0.4l0.2,1.1c-0.9,0.9-1.4,0.8-2-0.3        c-6.4,9.3-1.1,12.5-1.1,12.5C842.6,420.1,843.9,416.8,847,415.8z"/>
					</g>
				</g>
			</g>
		</g>
	</g>
	<g>
		<g>
			<g>
				<g>
					<g>
						<path class="st8" d="M882.8,372.9l-0.5,0.2C882.5,373.1,882.7,373.1,882.8,372.9z"/>
						<path class="st8" d="M881.9,427.9c0,0,0.1,0,0.1,0.1C881.9,427.9,881.9,427.9,881.9,427.9z"/>
						<path class="st8" d="M867.2,381.4L867.2,381.4c0,0-0.1-0.1-0.1-0.1L867.2,381.4z"/>
						<path class="st8" d="M868.3,370.5c-0.5,2.9-2.7,3.6-1.8,6.6c-0.2,1.4,0.3,2.9,0.6,4.3c1.7,0.7,0,1.8,1.4,2.6l-1,0.3        c0.5,0.3,0.8,0.6,0.3,0.9l-0.3,0c0.7,0.4,0.3,0.9,0.7,1.1l-0.3,0l0.1,0.5l-0.4-0.1c0.8,0.7,0.8,1.4,0.5,2.1l1.2,0        c-1.3,1.3,1.1,1.9-0.5,3.1l-0.3,0c3.1,1.6-2.1,2.4,0.8,4c-0.4-0.2-0.6,0.1-0.9,0.1c0.3,0.7,0.5,1.5,2.8,1.6        c0,0.5-0.7,0.4-1.6,0.5c1,0,1.4,0.5,1.5,0.9l-0.4-0.2l0.3,1.2l1.9-0.2c-0.6,0.6-2.3,0.1-1.9,0.7l1.6,0        c-0.3,0.9-2.7,1.3-3.9,2.2c-0.7,3.5,3.1,7.4,0.3,10.6l-1.2,0.1c-1.7,0,2.5,1,0.9,1.1l0.8,0.4c-0.3,0.1-0.6,0.3-1,0.1        c-0.1,0.4,0.2,0.4,0.7,0.6l-1.1,0.3c-0.9,1.4,1.1,2.6,0.7,4.1c-2.2,1.7-0.4,5.1,0.7,7c2.4,2.8-4.6,5.6-1.8,8.5        c-0.2,0.1,0.3,0.3,0.5,0.3l-0.4,2.5c0,0-0.4,3,1.1,5c1.5,2,4.8,3,12.2-1.2l0.4,0.1c1-1.3,1.3-2.2-0.6-3.3        c2.3,0,0.3-1.1,1.1-1.4l0.2,0c-1.7-1,1.6-1.7,0-2.6c0.2,0,0.8,0.1,0.8,0.3c-0.3-0.6-0.7-1.5,0.6-1.4c-0.3-1.5,0.5-3.4-1.6-4.4        l0.4,0.1c-1.4-0.6-0.2-0.7-0.9-1.3c0.2,0,0.3-0.1,0.3,0c-1.4-0.6-0.1-1.7-0.7-2.2l0.9,0l-0.2-1.1l-0.2,0.4        c-2.4-0.3,1.6-0.8,0-1.7c0.3-0.8-5-1.8-3.8-2.5c-1.1-0.4,1.8,0.4,1-0.2c1.3,0,0.8,0.3,1.8,0.2c-0.6-0.6,1.3-0.9,0.5-1.6l1,0        c-1.8-1,1.4-1.6-0.3-2.3c-0.8-1,3-0.5,1.1-1.6l1.4-0.3c0.2-0.4-1.6-0.4-1-0.8c0.8,0.1,0.7-0.6,1.5-0.3c1.4-1-1.8-2.2,0.5-3.5        c-1.6-0.3-0.6-1-1.9-1.3c0.7,0,0.2-1.4,1.7-0.6c0.1,0.1,0.1,0.2-0.2,0.2l1,0.1c1.9-0.7-1-1.5-0.7-2.2        c-0.3,0.2-0.3,0.5-0.9,0.3l0.2-0.7l0.8,0.2l0.5-1.1l-1,0.1c0.5-0.5,2.3-0.7,0.8-1.3c-0.8-0.3-1.4,0.5-1.7-0.1        c0.7-0.7,1.8-1.7,2.1-2.6c-1.1,0.1-1.1-0.2-1.3-0.4l1,0c-1.4-1,2.2-0.3,1.1-1.3l0.7,0.1l-2.1-0.3c-2-0.9,2.1-0.4-0.6-1.4        c0.2,0.4-2.2,0.1-1.8-0.3l1,0.1c-0.2-0.3-0.6-0.3-0.4-0.5c0.5,0.2,1.4,0.1,1.2-0.3l1.2,0.3l-1.8-0.7c1-0.5-0.2-1.4,1.1-1.6        c0,0,0.7-1.2-0.8-1.5c0.9,0.2,1.3-0.4,2.4-0.2c-1-0.3-1.9-1.2-0.8-1.6l0.1,0.1c1.1-1.3-1.5-2.3-0.1-3.5c-1.2,0-0.5-0.6-2-0.4        c-1.4-1.2,3-2.2-1.6-2.7c-0.2-0.6,1.1-0.7,1.3-0.9l0.2,0.1c-0.4-1.1-0.4-1.4-0.3-2.1c-0.4-0.4-2.6-0.4-2.1-1.1        c0.8,0.2,0.7-0.1,0.7-0.3c0.1,0.2,0.4,0.2,1-0.1c-0.3,0-0.4-0.1-0.6-0.2c0.1,0,0.1,0,0.2,0c-0.3-0.4-0.6-0.4-0.7-0.2        c-0.1,0-0.3,0-0.5,0.1c1.1-0.5-0.1-1.3,1.4-1.3c-0.3-1.3-1.8-2.2-2.4-3.3c0.7-0.1,1.4,0.1,1.7,0.4l-0.3-0.8        c1.1,0,0.6,0.4,0.8,0.7c1.7-0.9-1.7-1.9-0.2-3l-0.8-0.2l0.1-0.1c-0.4,0-1.1-0.2-1.2-0.4c0.9-0.2,2.2,0,2.1-0.5        c0.9-0.4-0.5-1.2-1-1.7c-0.2,0.3-0.7,0.2-1,0.1c0-0.3,0.9-0.4,0.5-0.6l1.3,0c-1.2,0.1-1.3-0.7-1.8-0.8        c0.9-0.2,0.8,0.4,1.5,0.5c-0.1-1.1-0.1-0.5-0.2-1.6c-1-0.6-1.2,0.1-2.3-0.1c-0.3-0.5-1.1-1-0.4-1.6l-1.1,0.2        c-0.9-0.9-0.8-1.5,0.3-2.2c-4.6-3.4-7.7-3.7-9.7-3.1c-2,0.6-2.8,1.9-2.8,1.9C864.1,365.9,867.4,367.2,868.3,370.5z"/>
					</g>
				</g>
			</g>
		</g>
	</g>
	<g>
		<g>
			<g>
				<g>
					<g>
						<path class="st8" d="M989.2,324.4l1.1,0.3C990.2,324.5,989.9,324.3,989.2,324.4z"/>
						<path class="st8" d="M998.7,467.1c0.1,0,0.1-0.1,0.2-0.1C998.8,467.1,998.8,467.1,998.7,467.1z"/>
						<path class="st8" d="M1005.2,348.4C1005.2,348.4,1005.2,348.4,1005.2,348.4c-0.1-0.1-0.1-0.1-0.1-0.1L1005.2,348.4z"/>
						<path class="st8" d="M984.1,341c2-0.8,3.8-1.2,5.4-1.3c1.5-0.1,2.8,0,4.1,0.1c1.2,0.2,2.3,0.4,3.5,0.6        c0.6,0.1,1.1,0.3,1.7,0.4c0.5,0.2,1.1,0.3,1.7,0.5c0.9,0.6,1.8,1.3,2.7,2.5c0.9,1.2,1.7,2.8,2.2,4.5c1,0.6,1.2,1.9,1.2,3.2        c0,1.4-0.1,2.8,0.4,4.1l-1.1,0.8c0.3,0.9,0.5,2-0.2,2.8l-0.3-0.1c0.4,1.5-0.4,2.9-0.2,3.7l-0.3-0.1l-0.4,1.7l-0.3-0.4        c0,2.6-0.8,5.4-2,7.6l1.2,0.2c-2.9,4.6-1.3,7.2-4.4,11.2l-0.2-0.2c0.3,3.4-1,5.4-2.4,7.5c-1.4,2-2.8,4.1-2.7,7.5        c0-0.9-0.7,0.1-0.9-0.1c-0.8,2.8-1.9,5.6,0.2,6.6c-0.9,1.9-1.4,1.3-2.3,1.2c0.9,0.4,0.5,2.2-0.1,3.8l0-0.8        c0,0-0.4,1.1-0.8,2.2c-0.4,1.1-0.9,2.2-0.9,2.2l2.1,0c-1.6,2-2.4-0.4-3,1.9l1.4,0.7c-1.8,3-4.8,3.7-7.3,6.2        c-3.5,6-6.2,12.6-9.2,19c-1.6,3.2-3.2,6.3-5,9.2c-0.5,0.7-0.9,1.4-1.4,2.1l-0.7,1l-1,1.4c-1.7,2.2-3.4,4.4-5.4,6.7        c0,0-0.5,0.2-1,0.4c-0.5,0.2-1,0.4-1,0.4c-1.1,0.1-1.3,1.6-1.5,2.9c-0.2,1.3-0.1,2.5-1.5,3c0,0-0.1,0.5-0.2,1        c-0.1,0.5-0.2,0.9-0.2,0.9c-0.9,0.7-2.3,2.1-2.1,1.2c-1.6,2.1-1.2,2-1.3,3.1l-3.4,2.9c-2.4,2.9-4.2,5.5-5.7,7.8l0.3,0l0.3,0        l0.6-0.1l1.3-0.2l2.6-0.4c1.7-0.2,3.4-0.5,5.1-0.7c3.4-0.4,6.6-0.8,9.8-0.9c1.2,0.2,2.7,0.3,4.5,0.3c1.7,0,3.7,0,5.7,0        c2.1-0.1,4.2-0.2,6.5-0.3c0.6,0,1.1-0.1,1.7-0.1l0.8-0.1l0.6,0c0.6-0.1,1.3-0.1,1.9-0.2c5.1-0.6,10.2-1.6,14-2.2        c5.3-1.4,11.1-0.5,16.9,0.5c5.8,1,11.6,2,17,0.6c0.4,0.2,1.3-0.3,1.3-0.5c0,0,2.5,0.1,5,0.2c2.5,0.1,5,0.2,5,0.2s3,0.1,7,0.1        c4,0,8.9-0.2,12.7-0.8c3.8-0.6,6.5-1.7,5.9-3.7c-0.5-2-4.3-4.8-13.4-8.8l0.3-0.4c-5.5-1.1-9-1.4-12.9,0.4        c-0.5-2.3-4.5-0.3-5.8-1.1l0.1-0.2c-3.4,1.7-7-1.6-10.2,0c0.1-0.2,0.2-0.8,1-0.8c-2.4,0.3-5.6,0.8-5.8-0.6        c-5.7,0.3-13.6-0.2-17.2,2l0.2-0.4c-2,1.5-2.7,0.3-5,1.1c-0.1-0.2-0.3-0.3-0.3-0.3c-2.2,1.5-6.6,0.4-8.4,1.1l-0.1-0.9        l-4.5,0.4l1.7,0.1c-0.5,2.5-3.5-1.4-6.6,0.3c-0.2,0-0.4,0-0.6,0c-0.1,0-0.2,0.1-0.3,0.1c-0.2,0.1-0.4,0.3-0.6,0.5        c-0.5,0.5-1.1,1.1-1.8,1.7c-0.7,0.6-1.6,1.2-2.4,1.6c-0.8,0.4-1.6,0.5-2.1,0.3c-1.1,0.6-0.4,0.1,0.1-0.4        c0.6-0.5,1.1-1.1-0.1-0.6c1-1.3,1.4-0.9,1.8-1.9c-0.9,0.4-1.2,0-1.4-0.2c-0.2-0.3-0.4-0.5-1.7,0l1.3-1.1        c-1.5,0.7-2.2,0.8-2.5,0.7c-0.1-0.1-0.2-0.2-0.2-0.3c0-0.1,0-0.1,0-0.2c0,0,0,0,0-0.1l0,0c0,0,0.1-0.1,0.1-0.1        c0.4-0.4,0.4-0.6-0.4-0.4c-0.2-0.4,1.3-1.3,2.4-1.9c0.6-0.3,1.1-0.6,1.3-0.8c0.2-0.2,0.1-0.3-0.4-0.3c0,0,0.6-0.3,1.2-0.5        c0.6-0.2,1.1-0.4,1.1-0.4c0.5-0.4-2.1,0.1-0.8-0.5c1.1-0.1,1.3-0.6,2.1-0.4c0.5-0.2,0.7-0.3,0.7-0.5c0-0.2,0-0.5-0.1-0.8        c0-0.1,0-0.2,0-0.2l0-0.1l0,0c0,0,0,0,0,0c0,0.1,0,0,0,0l0,0l0-0.1l0.2-0.4c0.3-0.5,0.6-1.1,0.9-1.6c0.7-1,1.6-2,2.8-2.9        c-0.7-1.9,1.5-3.7,0.9-5.1c0.7,0.2,3-4.7,2.7-1.2c0,0.3-0.3,0.7-0.5,0.5l0.6,0.8c3.2-1.7,2-5.4,3.8-8        c-0.7,0.6-1.3,1.7-1.5,0.7c0,0,0.4-0.6,0.8-1.2c0.4-0.6,0.8-1.2,0.8-1.2l0.4,0.9l2.5-3.5l-1.2,0c1.5-1.6,3.4-1.4,3.2-4.2        c-0.2-1.3-2.1,1.1-1.4-1c1-1.1,2.2-2.4,3.4-3.9c1.2-1.5,2.4-3.1,3.3-4.6c-1.2-0.2-0.7-1.1-0.5-2l0.9,0.3        c0.4-4,2.6-0.3,3.2-4.2l0.5,0.6l-1.4-1.8c-0.3-3.9,2.7-0.8,1.8-5.4c-0.5,1.4-2.3-0.3-1.1-1.8l0.7,0.8c0.2-1,0-1.5,0.5-2        c0.2,0.8,1.1,0.9,1.6-0.6l0.7,1.4c0,0-0.1-0.8-0.2-1.7c-0.1-0.8-0.2-1.7-0.2-1.7c1.8-1.6,2-5.3,3.6-5.6c0,0,2.4-4.1,1.4-5.7        c0.5,1.2,1.8-1.1,2.5,0c-0.5-1.5,0-5.2,1.5-6.1l0,0.3c2.9-4.6,1.7-9.1,4.5-13.2c-1.2-0.2,0.2-2.4-1.4-2.2        c0.1-2.6,1.5-4.5,2.4-6.3c0.9-1.8,1.3-3.4-0.7-4.8c0.3-2.4,1.6-2.6,2.1-3.8l0.1,0.6c0.2-2.4,0.3-3.9,0.3-5.3        c0.1-1.4,0.1-2.7,0.1-4.5c-0.3-0.9-0.9-1.4-1.5-2.1c-0.6-0.7-1.1-1.5-1.1-3.1c1,0.9,0.7-0.4,0.3-1.6c0.3,0.7,0.7,0.9,0.8-0.8        c-0.3-0.2-0.6-0.5-0.8-0.7c0.1,0,0.1-0.1,0.2-0.1c-0.9-1.9-1.1-1.5-0.9-0.5c-0.1,0-0.3,0.1-0.4,0.5c0.2-1.2-0.4-2.6-0.9-3.8        c-0.5-1.2-1-2.1-0.4-2.6c-1.8-2.8-4.2-4.8-6.6-6.1c-2.5-1.4-4.9-2.1-7.5-2.7c-0.2-0.5,0.1-0.7,0.6-0.9        c0.5-0.1,1.3-0.1,2.1,0.1c0,0-0.9-0.4-1.9-0.6c-0.5-0.1-0.9-0.3-1.3-0.3c-0.4-0.1-0.6-0.1-0.6-0.1c0.2-0.5,0.7-0.5,1.4-0.3        c0.7,0.2,1.5,0.5,2.1,0.7c-1.9-1.8-4.6-2-7-1.9c-2.5,0.1-4.9,0.6-7.5,0c0,0-0.2,0.2-0.5,0.5c-0.2,0.2-0.5,0.5-0.5,0.5        l-0.3-0.1c0.1,0.5-0.9,1.2-1.6,1.5c-0.8-0.8-0.4-2.2-2.8-1.5c-2.2-0.4-5.2,2.1-7.2,3.6c1.3-0.4,1.1,0.3,0.7,0.8        c-1,0.5-2.1,0-2.7,0.8l-0.7-1.1c0.9,0.8-2.1,2.7-2.1,3.3c-1.1-0.4,1.1-1.6,1-2.4c-2.1,1.3-2.5,1.7-3,2c-0.5,0.4-1,0.7-2.8,2.2        c-1.4,2.3,1.1,0.6,0.9,2.2c-0.7,0.8-1.3,1.7-2,2.6c-0.6,0.9-1.4,1.7-2.5,2.4c0,0,0.3,0,0.7,0.1c0.3,0,0.7,0.1,0.7,0.1        c-1.9,3.5-3.2,5.2-5.6,6.9c-0.9,3.7-0.8,6.7-0.6,8.9c0.2,1.1,0.4,2,0.6,2.8c0.3,0.8,0.6,1.4,0.9,1.9c0.6,0.9,1.2,1.5,1.9,1.7        c0.6,0.2,1.2,0,1.8-0.4c1.2-0.6,2.1-1.8,2.9-2.8c0.4-0.5,0.7-1,1-1.3c0.2-0.3,0.4-0.6,0.4-0.6c1.3-1.6,2.3-3,3.3-4.4        c0.9-1.4,1.7-2.7,2.5-4.2c0.9-1.4,1.8-2.9,3.1-4.4c0.6-0.8,1.4-1.5,2.2-2.3c0.4-0.3,0.9-0.7,1.3-1.1        C983,341.7,983.6,341.4,984.1,341z"/>
					</g>
				</g>
			</g>
		</g>
	</g>
	<g>
		<g>
			<g>
				<g>
					<g>
						<path class="st8" d="M1115,389.7l0.1,0.5C1115.1,390,1115.1,389.8,1115,389.7z"/>
						<path class="st8" d="M1151.6,390.1c0,0,0-0.1,0-0.1C1151.6,390.1,1151.6,390.1,1151.6,390.1z"/>
						<path class="st8" d="M1120.3,405.5L1120.3,405.5c0,0,0,0.1,0,0.1L1120.3,405.5z"/>
						<path class="st8" d="M1113,404.1c1.9,0.6,2.4,2.8,4.4,1.9c1,0.2,2-0.3,2.9-0.5c0.5-1.7,1.2,0,1.8-1.4l0.2,1        c0.2-0.5,0.4-0.8,0.6-0.3l0,0.3c0.3-0.7,0.6-0.3,0.7-0.6l0,0.3l0.3-0.1l-0.1,0.4c0.5-0.8,1-0.8,1.4-0.4l0-1.2        c0.9,1.3,1.3-1.1,2.1,0.5l0,0.3c1.1-3,1.6,2.1,2.7-0.8c-0.1,0.4,0,0.6,0,0.9c0.5-0.3,1-0.5,1.1-2.8c0.4,0,0.3,0.7,0.3,1.6        c0-1,0.3-1.4,0.6-1.5l-0.1,0.4l0.8-0.3l-0.1-1.9c0.4,0.5,0.1,2.3,0.5,1.9l0-1.6c0.6,0.3,0.9,2.7,1.5,3.9        c2.4,0.7,5-3.2,7.2-0.5l0.1,1.2c0,1.7,0.7-2.5,0.7-0.9l0.3-0.8c0.1,0.3,0.2,0.6,0.1,1c0.2,0.1,0.2-0.2,0.4-0.7l0.2,1.1        c0.9,0.8,1.8-1.2,2.8-0.8c1.2,2.2,3.4,0.2,4.7-0.9c0.9-1.3,1.9-0.2,2.7,0.9c0.9,1.1,1.7,2.1,2.6,0.7c0,0.2,0.2-0.3,0.2-0.5        c0,0,0.4,0.1,0.7,0.2c0.3,0.1,0.7,0.2,0.7,0.2s0.4,0.1,1,0c0.6-0.1,1.3-0.3,1.9-1c0.7-0.7,1.3-1.8,1.7-3.7        c0.4-1.9,0.4-4.6-0.8-8.4l0.1-0.4c-0.9-1.1-1.6-1.4-2.6,0.4c0.1-2.3-0.8-0.3-1-1.1l0-0.2c-0.8,1.7-1.2-1.6-1.9,0        c0-0.2,0.1-0.8,0.2-0.8c-0.5,0.3-1.1,0.7-1.1-0.6c-1.1,0.3-2.5-0.4-3.2,1.8l0.1-0.4c-0.4,1.4-0.5,0.2-0.9,0.9        c0-0.2,0-0.3,0-0.3c-0.4,1.4-1.1,0.2-1.4,0.8l0-0.9l-0.8,0.2l0.3,0.2c-0.1,2.4-0.5-1.5-1.1,0c-0.5-0.3-1.1,5.1-1.6,3.9        c-0.3,1.1,0.3-1.9-0.1-1c0-1.3,0.2-0.8,0.1-1.8c-0.4,0.6-0.6-1.3-1.1-0.5l0-1c-0.6,1.8-1.1-1.3-1.5,0.4c-0.6,0.8-0.4-3-1-1        l-0.2-1.3c-0.3-0.2-0.2,1.6-0.5,1c0-0.8-0.4-0.7-0.2-1.5c-0.7-1.3-1.4,1.9-2.3-0.4c-0.2,1.6-0.7,0.7-0.8,1.9        c0-0.7-0.9-0.1-0.4-1.7c0-0.1,0.1-0.1,0.1,0.2l0.1-1c-0.5-1.9-1,1-1.5,0.7c0.1,0.3,0.4,0.2,0.2,0.9l-0.5-0.1l0.1-0.8l-0.7-0.5        l0.1,1c-0.3-0.5-0.4-2.3-0.9-0.8c-0.2,0.8,0.3,1.4-0.1,1.7c-0.5-0.7-1.1-1.8-1.7-2.1c0,1.1-0.1,1.1-0.3,1.3l0-1        c-0.7,1.4-0.2-2.2-0.8-1.1l0.1-0.7l-0.2,2.1c-0.6,2-0.3-2.1-0.9,0.6c0.3-0.2,0.1,2.2-0.2,1.8l0.1-1c-0.2,0.2-0.2,0.6-0.3,0.4        c0.1-0.5,0.1-1.4-0.2-1.2l0.2-1.2l-0.5,1.8c-0.3-1-0.9,0.2-1.1-1.1c0,0-0.8-0.7-1,0.8c0.2-0.9-0.3-1.3-0.1-2.4        c-0.2,1-0.8,1.9-1.1,0.8l0-0.1c-0.9-1.1-1.5,1.5-2.3,0.1c0,1.2-0.4,0.5-0.3,2c-0.8,1.4-1.4-3-1.8,1.5        c-0.4,0.2-0.4-1.1-0.6-1.3l0.1-0.2c-0.7,0.4-0.9,0.4-1.4,0.3c-0.3,0.4-0.3,2.6-0.8,2c0.2-0.8,0-0.7-0.2-0.7        c0.1-0.1,0.2-0.4-0.1-1c0,0.3-0.1,0.4-0.1,0.6c0-0.1,0-0.1,0-0.2c-0.3,0.3-0.2,0.6-0.1,0.7c0,0.1,0,0.3,0,0.5        c-0.3-1.1-0.8,0.1-0.9-1.4c-0.9,0.3-1.5,1.8-2.3,2.4c-0.1-0.7,0.1-1.4,0.3-1.7l-0.5,0.3c0-1.1,0.3-0.6,0.5-0.8        c-0.6-1.7-1.3,1.7-2,0.1l-0.2,0.8l0-0.1c0,0.4-0.2,1.1-0.3,1.2c-0.1-0.9,0-2.2-0.3-2.1c-0.3-0.9-0.8,0.4-1.2,0.9        c0.2,0.2,0.1,0.7,0,1c-0.2,0-0.3-0.9-0.4-0.5l0-1.3c0.1,1.2-0.5,1.3-0.6,1.8c-0.1-0.9,0.3-0.8,0.3-1.5        c-0.7,0.1-0.4,0.1-1.1,0.2c-0.4,0.9,0.1,1.2-0.1,2.3c-0.3,0.2-0.7,1.1-1.1,0.4l0.1,1.1c-0.6,0.9-1,0.7-1.4-0.4        c-4.8,9-1.2,12.4-1.2,12.4C1109.8,408.2,1110.8,405,1113,404.1z"/>
					</g>
				</g>
			</g>
		</g>
	</g>
	<g>
		<g>
			<g>
				<g>
					<g>
						<path class="st8" d="M1126.8,439.6l-0.3-0.4C1126.6,439.4,1126.7,439.5,1126.8,439.6z"/>
						<path class="st8" d="M1120.1,441.9c0,0,0,0.1,0,0.1C1120.1,442,1120.1,442,1120.1,441.9z"/>
						<path class="st8" d="M1119,426L1119,426c0,0,0-0.1-0.1-0.1L1119,426z"/>
						<path class="st8" d="M1119.8,427c-0.4-0.4-1.4-2.4-1-1.6c-0.1-0.2,0.1,0.3,0.2,0.5c0.7,1.5,0,0,0.6,1.3l-0.4-0.9        c0.2,0.4,0.3,0.7,0.1,0.3l-0.1-0.3c0.3,0.7,0.1,0.3,0.2,0.6l-0.1-0.3l0,0.1l-0.2-0.4c0.3,0.7,0.3,0.8,0.1,0.4l0.5,1.1        c-0.5-1.2,0.4,1.1-0.3-0.4l-0.1-0.3c1.1,2.9-0.8-1.9,0.2,0.8c-0.1-0.3-0.2-0.6-0.3-0.8c0.1,0.3,0.1,0.5,0.9,2.6        c0,0-0.3-0.7-0.5-1.5c0.3,0.9,0.4,1.3,0.4,1.4l-0.1-0.4l0.1,0.3l0.6,1.8c-0.2-0.5-0.7-2.2-0.6-1.7l0.5,1.5        c-0.1-0.3-0.9-2.5-1.3-3.6c-0.1-0.3,0,0.5,0.1,1.1c0.1,0.6,0.1,0.9-0.3-0.4l-0.3-1.1c-0.4-1.7,0.5,2.5,0.2,0.9l0.2,0.8        c-0.1-0.3-0.1-0.6-0.2-1c0-0.1,0,0.2,0.1,0.7l-0.2-1c-0.2-0.8,0.2,1.2,0,0.8c-0.4-2.1-0.2-0.2-0.1,1c0.1,1.3-0.1,0.2-0.2-0.8        c-0.2-1-0.2-2-0.2-0.5c0-0.2,0,0.3,0,0.5l-0.1-0.2c0,0-0.1-0.2-0.2,1.5c0,0.8-0.1,2.1-0.1,4c0,1.9,0,4.6,0.4,8.1l0,0.4        c0.2,0.9,0.4,1.1,0.4-0.8c0.1,2.3,0.2,0.2,0.2,1l0,0.2c0-1.8,0.3,1.5,0.3-0.1c0,0.2,0,0.8,0,0.9c0.1-0.3,0.1-0.8,0.2,0.5        c0.2-0.4,0.5,0.2,0.4-1.9l0,0.4c-0.1-1.4,0.1-0.2,0.1-1c0,0.2,0,0.3,0,0.3c-0.1-1.4,0.2-0.2,0.2-0.9l0.1,0.9l0.1-0.2l-0.1-0.2        c-0.3-2.4,0.3,1.5,0.2-0.1c0.2,0.3-0.6-5.1-0.4-3.9c-0.2-1.1,0.3,1.8,0.2,1c0.2,1.3,0.1,0.8,0.3,1.8c0-0.6,0.3,1.3,0.3,0.4        l0.2,1c-0.2-1.8,0.5,1.2,0.2-0.5c-0.1-0.8,0.7,2.9,0.4,0.9l0.3,1.3c0.1,0.2-0.3-1.6-0.1-1c0.2,0.8,0.2,0.6,0.4,1.4        c0.5,1.3-0.1-1.9,0.6,0.2c-0.4-1.6,0-0.7-0.3-1.9c0.2,0.7,0.2,0.1,0.5,1.6c0,0.1,0,0.1-0.1-0.2l0.2,0.9c0.6,1.8,0-1,0.1-0.8        c-0.1-0.3-0.1-0.2-0.3-0.9l0.1,0.1l0.2,0.8l0.3,0.4l-0.3-1c0.2,0.5,0.7,2.1,0.4,0.7c-0.2-0.8-0.5-1.3-0.5-1.6        c0.3,0.6,0.7,1.6,1,1.8c-0.4-1.1-0.3-1.1-0.3-1.3l0.3,0.9c-0.3-1.4,0.7,2.1,0.5,1l0.2,0.7l-0.6-2c-0.5-1.9,0.7,1.9,0-0.7        c0,0.2-0.7-2.1-0.5-1.7l0.3,0.9c0-0.2-0.2-0.6-0.1-0.4c0.2,0.5,0.4,1.3,0.4,1.2l0.4,1.1l-0.5-1.7c0.4,0.9,0.1-0.3,0.6,0.9        c0,0,0.4,0.6-0.1-0.8c0.3,0.9,0.5,1.2,0.9,2.2c-0.3-1-0.5-1.8-0.1-0.8l0,0.1c0.6,1-0.3-1.6,0.4-0.4c-0.5-1.1-0.1-0.5-0.7-1.9        c-0.4-1.4,1.5,2.6-0.3-1.6c0-0.3,0.5,0.9,0.7,1.1l0.1,0.2c0-0.4,0-0.5,0.1-0.4c-0.1-0.4-1.1-2.3-0.8-1.9        c0.3,0.8,0.3,0.6,0.3,0.6c0,0.1,0.2,0.4,0.5,0.9c-0.1-0.2-0.2-0.4-0.2-0.5c0,0.1,0.1,0.1,0.1,0.2c-0.1-0.3-0.2-0.5-0.3-0.6        c-0.1-0.1-0.1-0.3-0.2-0.5c0.5,1,0.1-0.1,0.8,1.2c0-0.4-0.6-1.8-0.7-2.3c0.4,0.7,0.6,1.2,0.7,1.5l0-0.3        c0.5,0.9,0.2,0.6,0.3,0.8c0.9,1.5-0.6-1.6,0.3-0.3l-0.4-0.8l0.1,0.1c-0.2-0.4-0.5-0.9-0.5-1.1c0.5,0.8,1.1,1.9,1.1,1.8        c0.5,0.8-0.1-0.5-0.3-0.9c-0.1-0.1-0.4-0.6-0.5-0.9c0,0,0.5,0.8,0.3,0.4l0.6,1.1c-0.6-1-0.6-1.1-0.8-1.6        c0.5,0.8,0.4,0.7,0.7,1.3c0.1-0.2,0-0.1,0.1-0.3c-0.4-0.8-0.6-1-1.2-2c-0.1-0.2-0.5-1,0-0.4l-0.6-0.9        c-0.4-0.8-0.3-0.7,0.4,0.2c-1.1-2-2.1-3.6-3-5c-0.9-1.3-1.6-2.4-2.2-3.2c-1.1-1.6-1.6-2.3-1.6-2.3        C1117.6,423.4,1119.4,426.2,1119.8,427z"/>
					</g>
				</g>
			</g>
		</g>
	</g>
	<g>
		<g>
			<g>
				<g>
					<g>
						<path class="st8" d="M1124.7,431.2l0.1,0.5C1124.8,431.5,1124.8,431.3,1124.7,431.2z"/>
						<path class="st8" d="M1166.3,436.2C1166.3,436.1,1166.4,436.1,1166.3,436.2C1166.3,436.1,1166.3,436.1,1166.3,436.2z"/>
						<path class="st8" d="M1129.2,447.6C1129.2,447.6,1129.2,447.5,1129.2,447.6c0,0,0,0.1-0.1,0.1L1129.2,447.6z"/>
						<path class="st8" d="M1120.9,445.3c2.1,0.8,2.4,3.1,4.8,2.5c1.1,0.3,2.3,0,3.4-0.2c0.7-1.6,1.4,0.1,2.2-1.2l0.1,1        c0.3-0.5,0.5-0.8,0.7-0.2l0,0.3c0.4-0.7,0.7-0.2,0.9-0.6l0,0.3l0.4-0.1l-0.1,0.4c0.6-0.7,1.2-0.7,1.6-0.3l0.1-1.2        c0.9,1.4,1.6-0.9,2.3,0.7l0,0.3c1.6-2.9,1.6,2.3,3.2-0.4c-0.2,0.3,0,0.6-0.1,0.9c0.6-0.3,1.2-0.4,1.5-2.6        c0.4,0.1,0.2,0.8,0.2,1.6c0.1-1,0.5-1.4,0.9-1.4l-0.2,0.4l1-0.2l0.1-1.9c0.4,0.6-0.2,2.3,0.4,1.9l0.2-1.6        c0.6,0.4,0.7,2.8,1.3,4c2.6,1,6-2.6,8.2,0.4l0,1.2c-0.2,1.7,1-2.4,0.9-0.8l0.4-0.7c0,0.3,0.2,0.7,0,1c0.3,0.1,0.3-0.2,0.6-0.7        l0.2,1.1c1,1,2.1-1,3.2-0.4c1.1,2.3,3.9,0.7,5.5-0.3c2.4-2.3,3.9,4.8,6.4,2.1c0,0.2,0.3-0.3,0.3-0.5l1.9,0.5        c0,0,9.3,1.8,3.9-13.2l0.1-0.4c-0.9-1-1.6-1.3-2.5,0.5c0.2-2.3-0.8-0.3-1-1.1l0-0.2c-0.9,1.7-1.1-1.6-2-0.1        c0-0.2,0.1-0.8,0.3-0.8c-0.5,0.2-1.2,0.7-1-0.7c-1.1,0.2-2.6-0.6-3.5,1.5l0.1-0.4c-0.6,1.4-0.5,0.1-1.1,0.8c0-0.2,0-0.3,0-0.3        c-0.6,1.4-1.3,0.1-1.7,0.6l0.1-0.9l-0.9,0.1l0.3,0.2c-0.4,2.4-0.5-1.6-1.3-0.1c-0.5-0.4-1.8,4.9-2.3,3.6        c-0.4,1.1,0.5-1.8-0.1-1c0.1-1.3,0.3-0.8,0.3-1.8c-0.5,0.5-0.5-1.4-1.2-0.6l0.1-1c-0.9,1.7-1.1-1.5-1.8,0.2        c-0.8,0.7-0.1-3-1.1-1.1l-0.1-1.4c-0.3-0.3-0.4,1.6-0.7,0.9c0.1-0.8-0.4-0.7-0.1-1.5c-0.6-1.4-1.8,1.7-2.6-0.7        c-0.4,1.6-0.8,0.6-1.1,1.8c0.1-0.7-1-0.2-0.3-1.7c0.1-0.1,0.2-0.1,0.1,0.2l0.2-1c-0.4-1.9-1.2,0.9-1.7,0.5        c0.1,0.3,0.4,0.3,0.1,0.9l-0.5-0.2l0.2-0.8l-0.7-0.6l0,1c-0.3-0.6-0.3-2.3-0.9-0.9c-0.3,0.8,0.2,1.4-0.3,1.7        c-0.4-0.8-1.1-1.9-1.7-2.3c-0.1,1.1-0.3,1.1-0.5,1.3l0.1-1c-0.9,1.3,0-2.2-0.8-1.2l0.1-0.7l-0.4,2c-0.9,1.9-0.1-2.1-1.1,0.5        c0.3-0.1-0.1,2.2-0.4,1.7l0.2-0.9c-0.2,0.2-0.3,0.6-0.4,0.4c0.2-0.5,0.2-1.4-0.1-1.3l0.3-1.2l-0.8,1.7        c-0.3-1.1-1.1,0.1-1.1-1.2c0,0-0.8-0.8-1.2,0.7c0.3-0.9-0.2-1.3,0.1-2.4c-0.4,1-1.1,1.8-1.3,0.6l0.1-0.1        c-0.9-1.3-1.9,1.3-2.6-0.1c-0.1,1.2-0.5,0.5-0.6,1.9c-1.1,1.3-1.3-3.2-2.2,1.3c-0.5,0.2-0.4-1.1-0.6-1.4l0.1-0.2        c-0.8,0.3-1.1,0.3-1.7,0.1c-0.3,0.4-0.7,2.5-1.1,1.9c0.3-0.8,0-0.7-0.2-0.7c0.1-0.1,0.2-0.4,0-1c-0.1,0.3-0.1,0.4-0.2,0.5        c0-0.1,0-0.1,0-0.2c-0.4,0.3-0.3,0.5-0.2,0.7c0,0.1,0,0.3,0,0.5c-0.2-1.1-1,0-0.8-1.5c-1,0.2-1.9,1.6-2.8,2.1        c0-0.8,0.3-1.4,0.5-1.6l-0.6,0.2c0.1-1.1,0.4-0.6,0.6-0.8c-0.5-1.8-1.6,1.5-2.3-0.1l-0.3,0.8l0-0.1c-0.1,0.4-0.3,1-0.4,1.2        c0-0.9,0.3-2.1-0.1-2.1c-0.2-0.9-1,0.3-1.4,0.8c0.2,0.2,0.1,0.7-0.1,1c-0.2,0-0.2-0.9-0.4-0.6l0.1-1.3        c-0.1,1.2-0.7,1.2-0.8,1.7c0-0.9,0.4-0.8,0.5-1.5c-0.8,0-0.4,0-1.2,0c-0.5,0.9-0.1,1.2-0.4,2.3c-0.4,0.2-0.9,1-1.2,0.2l0,1.1        c-0.8,0.8-1.2,0.6-1.6-0.6c-6.5,8.4-2.7,12.2-2.7,12.2C1116.8,448.9,1118.3,445.8,1120.9,445.3z"/>
					</g>
				</g>
			</g>
		</g>
	</g>
	<g>
		<g>
			<g>
				<g>
					<g>
						<path class="st8" d="M756.1,553.3l1,0.3C757,553.4,756.7,553.3,756.1,553.3z"/>
						<path class="st8" d="M758.6,681.8c0.1,0,0.1-0.1,0.2-0.1C758.7,681.8,758.7,681.8,758.6,681.8z"/>
						<path class="st8" d="M775.2,574.1L775.2,574.1c-0.1,0-0.1,0-0.2,0L775.2,574.1z"/>
						<path class="st8" d="M754.1,569.7c0.8-0.4,1.5-0.7,2.1-0.9c0.7-0.1,1.3-0.3,1.8-0.4c0.6,0,1.1,0,1.6-0.1        c0.5,0.1,1,0.1,1.4,0.1c0.9,0.2,1.8,0.3,2.7,0.4c0.5,0,1,0.2,1.5,0.2c0.6,0,1.2,0.2,1.9,0.3c1.2,0.6,2.6,1,4,1.9        c1.4,0.7,2.7,1.7,4,2.8c1.1,0,1.9,0.8,2.6,1.8l0.5,0.7c0.2,0.2,0.3,0.5,0.5,0.7c0.4,0.5,0.8,0.8,1.4,1.1l-0.5,1.1        c0.4,0.2,0.7,0.4,1,0.7c0.2,0.3,0.3,0.7,0.2,1.1l-0.3,0.1c0.5,0.3,0.8,0.8,1,1.2c0.2,0.4,0.3,0.8,0.6,1l-0.3,0        c0,0,0.1,0.3,0.3,0.6c0.1,0.1,0.1,0.3,0.2,0.4c0,0.1,0.1,0.2,0.1,0.2l-0.4-0.1c0.5,0.7,1.1,1.5,1.2,2.4        c0.1,0.4,0.2,0.8,0.2,1.3c0,0.4,0,0.9,0,1.3l1.1-0.3c-0.1,0.5-0.2,0.9-0.2,1.3c0,0.4-0.1,0.8,0,1.1c0,0.7,0.2,1.3,0.3,2        c0.2,1.2,0.4,2.5-0.5,4.2l-0.3-0.1c1.3,2.4,0.5,4.1-0.5,5.8c-0.2,0.4-0.5,0.8-0.7,1.2c-0.2,0.4-0.4,0.9-0.6,1.3        c-0.3,0.9-0.4,2,0,3.4c-0.2-0.7-0.6,0.1-0.9-0.1c-0.4,2.2-1.1,4.5,1.1,5.4c-0.6,1.6-1.2,1-2.1,0.9c0.9,0.4,0.8,1.9,0.3,3.1        l-0.1-0.7c0,0-0.3,0.9-0.6,1.8c-0.3,0.9-0.6,1.8-0.6,1.8l2,0.1c-1.4,1.6-2.3-0.5-2.7,1.5l1.4,0.7c-1.5,2.4-4.4,2.8-6.7,4.7        c-2.9,4.9-5.2,10.4-7.8,15.6c-2.6,5.2-5.6,10.2-9.8,13.7l-1.2-0.3c-1.5-0.9,0.3,3.9-1.2,3.2l-0.1,1.5        c-0.5,0.1-1.2,0.5-1.1-0.3c-0.7,0.9-0.5,1.1-0.6,2l-1.6,0.3c-0.1,0.1-0.3,0.3-0.5,0.5l-0.5,0.6c-0.3,0.4-0.7,0.7-1,1.1        c-0.7,0.8-1.3,1.5-1.9,2.3c-1.2,1.5-2.3,3.1-3.3,4.5c-1,1.5-2.1,2.9-3.3,4.4c-1.2,1.5-2.5,2.9-4.2,4.6        c-5.7,4.4-12.3,11.3-16.7,16.6c0.7,0,1.8-0.2,2.8-0.3c1-0.2,2.1-0.3,3.1-0.5c2-0.3,4.1-0.7,6-1c3.9-0.6,7.4-1.3,10.2-1.8        c4.6-1,8-1.4,11.6-1.4c3.5,0,7.1,0.3,11.1,0.6l1.5,0.1l0.8,0.1l0.5,0.1l1.8,0.3c1.2,0.2,2.4,0.3,3.6,0.3        c2.4,0.1,4.7-0.1,6.9-0.9c0.3,0.2,1-0.3,1-0.5c0,0,2.1,0,4.1,0c2.1,0,4.1,0.1,4.1,0.1s2.5,0,5.8-0.1c3.3-0.2,7.3-0.5,10.5-1.2        c3.1-0.7,5.3-1.9,4.9-3.9c-0.5-1.9-3.6-4.7-11.4-8.3l0.2-0.4c-4.6-1-7.6-1.1-10.8,0.8c-0.5-2.3-3.8-0.2-4.9-0.9l0.1-0.2        c-2.8,1.8-5.9-1.3-8.6,0.3c0.1-0.2,0.1-0.8,0.8-0.9c-2,0.4-4.7,1-4.9-0.4c-1.2,0.1-2.5,0.2-3.8,0.3l-0.5,0l-0.3,0l-0.1,0        l-0.3,0c-0.2,0-0.4,0.1-0.6,0.1c-0.8,0.2-1.6,0.6-3.2,1.8l0.4-0.4c-0.9,0.8-1.3,0.9-1.5,0.8c-0.2,0-0.4-0.1-1.2,0.3        c0.2-0.2,0.2-0.3,0.3-0.4c-1.3,0.8-2.1,0.9-2.7,0.9c-0.6,0-1-0.1-1.9,0.3l1.6-1l-2.1,0.4c0,0,0.2,0.2,0.2,0.2        c-2,1-2.3,1.1-2.1,0.8c0.1-0.1,0.3-0.3,0.6-0.5c0.1-0.1,0.2-0.2,0.3-0.3c0,0,0.2-0.1,0.3-0.2l0.3-0.2c0.5-0.4,0.6-0.5-0.1-0.3        c0.7-0.6-1.5,0.2-3.2,0.3c-1.7,0.2-2.7-0.1-0.9-1.2c-0.6-0.1,0-0.2,0.7-0.3c0.7-0.1,1.6-0.3,1.3-0.6c2.1-0.6,0.9,0.1,2.9-0.6        c-0.1-0.3,0.7-0.8,1.4-1.2c0.8-0.4,1.4-0.8,1.2-1.2l1.4-0.1c-0.8-0.5,0.2-1.1,0.9-1.5c0.8-0.4,1.4-0.6,0.9-1.3        c0-0.4,0.3-0.6,0.6-0.6c0.1,0,0.3,0,0.5,0c0.1,0,0.2,0,0.2,0.1c0.1,0,0.2,0,0.3,0c0.8-0.1,1.5-0.2,1.7-2.1l1.8-0.2        c1-1-0.7-1.8,0.7-2.6c0.6,0.6,1.7-1.2,1.8,0c1.6-1,2.3-2.8,3.1-4.5c0.8-1.8,1.8-3.6,4-4.9c-0.8-1.7,1.3-3.2,0.6-4.5        c0.7,0.3,2.6-3.9,2.5-0.8c0,0.3-0.2,0.6-0.5,0.4l0.7,0.8c3-1.3,1.7-4.6,3.3-6.7c-0.7,0.5-1.1,1.4-1.4,0.5l1.4-2l0.4,0.9        c0,0,0.6-0.7,1.1-1.4c0.6-0.7,1.1-1.5,1.1-1.5l-1.1-0.1c1.3-1.3,3.2-1,2.9-3.4c-0.3-1.2-2,0.8-1.4-1c1.8-1.7,4.3-4.3,6-6.9        c-1.2-0.3-0.7-1-0.6-1.8l0.9,0.4c0.2-3.6,2.5-0.1,2.9-3.6l0.5,0.6l-1.5-1.7c-0.6-3.5,2.6-0.6,1.4-4.7        c-0.3,1.3-2.3-0.3-1.3-1.6l0.7,0.7c0.1-0.9-0.1-1.3,0.3-1.8c0.3,0.7,1.2,0.8,1.5-0.5l0.8,1.3l-0.8-3c0.8-0.7,1.2-2,1.5-3        c0.3-1.1,0.6-2,1.4-2.2c0,0,0.1-0.2,0.3-0.6c0.1-0.4,0.3-0.9,0.5-1.5c0.3-1.2,0.4-2.5-0.2-3.1c0.7,1.1,1.6-1.2,2.5-0.3        c-0.8-1.3-1-4.7,0.2-6l0.1,0.3c0.5-1.2,0.6-2.4,0.6-3.6c0-1.1-0.1-2.2-0.3-3.3c-0.1-1.1-0.3-2.1-0.4-3.2        c-0.1-1.1-0.1-2.2,0.1-3.4c-1.1,0.3-0.8-2.2-2.2-1.4c-0.6-1.2-0.7-2.3-0.8-3.4c-0.1-1.1-0.1-2.1-0.2-3.1        c-0.2-1.8-0.7-3.3-3.2-3.2c-1.1-1.8,0-2.8-0.3-3.9l0.5,0.4c-1.1-1.7-1.8-2.8-2.5-3.8c-0.7-1-1.2-1.9-2.1-3.1        c-0.6-0.5-1.4-0.4-2.2-0.6c-0.8-0.1-1.5-0.4-2.2-1.5c1.2,0.1,0.4-0.7-0.3-1.3c0.5,0.3,0.9,0.3,0.4-1c-0.3,0.1-0.6,0-0.9-0.1        c0-0.1,0-0.1,0.1-0.2c-1.4-1-1.4-0.5-0.9,0.1c-0.1,0.1-0.2,0.2-0.2,0.6c-0.2-1-1.2-1.8-2-2.4c-0.8-0.7-1.4-1.2-1.1-1.9        c-1.1-0.7-2.2-1.2-3.3-1.6c-1.1-0.4-2.2-0.7-3.2-0.8c-2.1-0.4-4.2-0.5-6.3-0.6c-0.3-0.8,0.8-1.4,2.1-1.3c0,0-0.2,0-0.5-0.1        c-0.3-0.1-0.7-0.1-1.1-0.1c-0.8-0.1-1.6-0.1-1.6-0.1c0.2-1,1.9-0.4,2.9-0.3c-0.2-0.2-0.4-0.3-0.6-0.4        c-0.2-0.1-0.5-0.2-0.7-0.3c-0.5-0.2-1-0.3-1.5-0.3c-0.5,0-1-0.1-1.5,0c-0.5,0.1-1,0.1-1.6,0.2c-0.5,0.1-1,0.2-1.6,0.3        c-0.5,0.1-1,0.2-1.5,0.3c-1,0.2-2.1,0.1-3.2,0l-0.7,1l-0.3-0.1c0.1,0.5-0.7,1.2-1.2,1.5c-0.8-0.7-0.5-2.1-2.6-1.4        c-1-0.2-2.1,0.5-3.1,1.2c-1.1,0.8-1.9,1.9-2.8,2.6c1.1-0.4,1,0.2,0.8,0.7c-0.9,0.5-1.8,0.1-2.3,0.9l-0.8-1        c0.5,0.4,0.1,1-0.3,1.6c-0.5,0.7-1,1.3-1,1.6c-1-0.4,0.7-1.6,0.5-2.3c-3.1,2.7-1.6,1.3-4.5,4.2c-0.8,2.2,1.1,0.5,1.2,2        c-0.5,0.8-0.9,1.6-1.4,2.4c-0.5,0.8-1,1.6-1.9,2.1l1.3,0.2c-0.3,0.8-0.6,1.5-0.9,2.1c-0.3,0.6-0.6,1.1-0.9,1.6        c-0.6,1-1.4,1.7-2.4,2.4c-0.2,1.6-0.3,3-0.2,4.3c0,0.6,0,1.2,0.1,1.8c0.1,0.6,0.1,1.1,0.2,1.6c0.3,1.9,0.9,3.2,1.5,4.1        c1.1,1.8,2.4,2.1,3.6,1.5c1.2-0.4,2.1-1.5,2.9-2.3c0.4-0.4,0.7-0.8,0.9-1.1c0.2-0.3,0.4-0.5,0.4-0.5c2.5-2.8,3.6-5,4.8-7.6        C749.9,575.2,751.1,572.2,754.1,569.7z"/>
					</g>
				</g>
			</g>
		</g>
	</g>
	<g>
		<g>
			<g>
				<g>
					<g>
						<path class="st8" d="M861,617.3l0.3,0.4C861.2,617.5,861.1,617.3,861,617.3z"/>
						<path class="st8" d="M908.2,610.5c0,0,0-0.1,0-0.1C908.2,610.4,908.2,610.4,908.2,610.5z"/>
						<path class="st8" d="M870.8,631.4L870.8,631.4c0,0.1,0,0.1,0,0.1L870.8,631.4z"/>
						<path class="st8" d="M861.4,631.8c2.5,0.1,3.5,2.1,5.9,0.8c1.2,0,2.4-0.7,3.5-1.2c0.3-1.8,1.5-0.3,2-1.8l0.4,0.9        c0.1-0.5,0.4-0.9,0.7-0.4l0,0.3c0.2-0.8,0.7-0.4,0.8-0.8l0,0.3l0.4-0.2l0,0.4c0.5-0.9,1.1-1,1.7-0.7l-0.2-1.1        c1.4,1.1,1.4-1.3,2.7,0l0,0.3c0.9-3.2,2.4,1.8,3.3-1.3c-0.1,0.4,0.2,0.6,0.2,0.9c0.6-0.4,1.2-0.7,0.9-2.9        c0.5,0,0.5,0.7,0.7,1.5c-0.1-1,0.2-1.5,0.5-1.6l-0.1,0.4l1-0.5l-0.5-1.8c0.6,0.5,0.5,2.3,0.9,1.7l-0.2-1.5        c0.8,0.2,1.6,2.5,2.4,3.5c3.1,0.3,5.8-4.1,9-1.7l0.3,1.2c0.3,1.7,0.5-2.6,0.8-1l0.2-0.8c0.1,0.3,0.4,0.6,0.2,1        c0.3,0,0.3-0.2,0.4-0.8l0.4,1c1.3,0.7,2.1-1.5,3.4-1.2c1.7,2,4.4-0.3,5.9-1.6c2.1-2.8,5.4,3.8,7.5,0.7        c0.1,0.2,0.2-0.3,0.2-0.5l2.2,0.1c0,0,2.6,0,4.1-1.8c1.5-1.7,2-5.2-2.6-11.9l0-0.4c-1.3-0.8-2.1-1-2.7,1        c-0.3-2.3-1-0.2-1.4-0.9l0-0.2c-0.6,1.8-1.6-1.3-2.2,0.3c0-0.2,0-0.8,0.1-0.9c-0.5,0.3-1.2,0.9-1.3-0.4c-1.2,0.5-3,0-3.6,2.2        l0-0.4c-0.3,1.5-0.6,0.3-1,1.1c0-0.2-0.1-0.3-0.1-0.3c-0.4,1.5-1.4,0.4-1.7,1l-0.1-0.9l-1,0.3l0.4,0.2        c0.1,2.4-0.9-1.5-1.4,0.2c-0.7-0.2-0.8,5.2-1.6,4.1c-0.2,1.2,0.1-1.9-0.3-1c-0.2-1.3,0.1-0.8-0.1-1.8        c-0.4,0.7-0.9-1.2-1.4-0.3l-0.1-1c-0.6,1.9-1.6-1.1-1.9,0.6c-0.7,0.9-0.9-2.9-1.5-0.8l-0.5-1.3c-0.4-0.2-0.1,1.7-0.5,1.1        c-0.1-0.8-0.6-0.6-0.4-1.4c-1.1-1.2-1.6,2.1-3.1,0c-0.1,1.7-0.8,0.8-0.8,2c-0.1-0.7-1.2,0-0.7-1.6c0-0.1,0.1-0.1,0.2,0.2l0-1        c-0.9-1.7-1.1,1.2-1.8,1c0.2,0.3,0.5,0.2,0.4,0.9l-0.6-0.1l0-0.8l-1-0.4l0.3,1c-0.5-0.5-0.9-2.2-1.2-0.7        c-0.1,0.8,0.6,1.3,0.2,1.7c-0.7-0.6-1.7-1.5-2.6-1.7c0.2,1.1,0,1.1-0.2,1.4l-0.2-1c-0.6,1.5-0.6-2.1-1.3-0.9l0-0.7l0.1,2.1        c-0.5,2.1-0.7-2-1.1,0.8c0.3-0.2,0.5,2.2,0,1.8l0-1c-0.2,0.2-0.2,0.6-0.4,0.5c0.1-0.5-0.1-1.4-0.4-1.2l0-1.2l-0.4,1.8        c-0.6-1-1.2,0.4-1.6-0.9c0,0-1.1-0.5-1.1,1c0.1-0.9-0.5-1.2-0.5-2.3c-0.1,1.1-0.7,2-1.2,1l0-0.1c-1.3-0.9-1.7,1.8-3,0.6        c0.2,1.1-0.4,0.6,0,2c-0.8,1.6-2.4-2.7-2.1,1.9c-0.4,0.3-0.7-1-1-1.2l0.1-0.3c-0.8,0.5-1.1,0.6-1.8,0.6        c-0.3,0.5,0,2.6-0.6,2.2c0.1-0.9-0.2-0.7-0.4-0.6c0.1-0.2,0.1-0.5-0.3-1c0,0.3,0,0.4-0.1,0.6c0-0.1,0-0.1,0-0.2        c-0.3,0.4-0.2,0.6,0,0.7c0,0.1,0.1,0.3,0.1,0.5c-0.6-1-1.1,0.3-1.4-1.2c-1.1,0.5-1.6,2.1-2.4,2.9c-0.2-0.7-0.1-1.4,0.1-1.7        l-0.6,0.4c-0.2-1.1,0.3-0.7,0.4-0.9c-1.1-1.6-1.3,2-2.5,0.6l0,0.9l-0.1-0.1c0.1,0.4,0,1.1-0.1,1.2c-0.3-0.9-0.4-2.1-0.8-2        c-0.5-0.8-0.9,0.6-1.3,1.2c0.3,0.1,0.3,0.6,0.2,1c-0.2,0.1-0.5-0.8-0.6-0.4l-0.3-1.2c0.3,1.2-0.4,1.4-0.3,1.9        c-0.3-0.9,0.2-0.9,0.1-1.6c-0.9,0.3-0.4,0.1-1.3,0.4c-0.3,1,0.3,1.2,0.3,2.3c-0.4,0.3-0.6,1.3-1.3,0.6l0.4,1.1        c-0.6,1-1.1,1-1.9,0c-2.1,5.1-1.8,8.2-0.9,10c0.8,1.8,2.1,2.4,2.1,2.4C858.2,636.7,858.8,633.2,861.4,631.8z"/>
					</g>
				</g>
			</g>
		</g>
	</g>
	<g>
		<g>
			<g>
				<g>
					<g>
						<path class="st8" d="M894.6,593l-0.4,0.3C894.4,593.2,894.6,593.1,894.6,593z"/>
						<path class="st8" d="M896.1,652.6C896.1,652.7,896.1,652.7,896.1,652.6C896.1,652.7,896.1,652.6,896.1,652.6z"/>
						<path class="st8" d="M879.6,603C879.6,603,879.6,603,879.6,603c0,0-0.1-0.1-0.1-0.1L879.6,603z"/>
						<path class="st8" d="M880.1,591.1c-0.4,3.1-2.5,4.1-1.4,7.3c-0.1,1.5,0.5,3.2,0.9,4.6c1.7,0.6,0.2,2,1.6,2.7l-0.9,0.4        c0.5,0.3,0.9,0.6,0.4,0.9h-0.3c0.8,0.4,0.4,0.9,0.7,1.1l-0.3,0l0.2,0.5l-0.4-0.1c0.8,0.7,0.9,1.5,0.6,2.2l1.2-0.1        c-1.2,1.6,1.2,1.9-0.2,3.3l-0.3,0c3.2,1.5-1.9,2.7,1.1,4.3c-0.4-0.2-0.6,0.1-0.9,0.1c0.4,0.8,0.6,1.6,2.9,1.5        c0,0.6-0.7,0.5-1.6,0.6c1-0.1,1.4,0.4,1.5,0.9l-0.4-0.2l0.4,1.3l1.9-0.3c-0.5,0.7-2.3,0.3-1.8,0.9l1.6-0.1        c-0.3,1-2.6,1.6-3.7,2.5c-0.5,3.7,3.5,7.7,0.7,11.1l-1.2,0.1c-1.7,0,2.5,1,0.9,1.1l0.8,0.4c-0.3,0.1-0.6,0.3-1,0.1        c-0.1,0.4,0.2,0.4,0.7,0.7l-1.1,0.4c-0.9,1.4,1.1,2.8,0.6,4.3c-2.3,1.7-0.5,5.4,0.5,7.5c2.3,3.1-4.7,5.9-2.1,9        c-0.3,0.1,0.3,0.4,0.5,0.4l-0.5,2.7c0,0-0.5,3.3,0.9,5.5c1.4,2.2,4.7,3.3,12.3-1l0.4,0.1c1-1.4,1.3-2.3-0.4-3.5        c2.3,0.1,0.4-1.2,1.1-1.5l0.2,0.1c-1.7-1.1,1.6-1.8,0.1-2.8c0.2,0.1,0.8,0.1,0.8,0.3c-0.2-0.7-0.7-1.6,0.7-1.5        c-0.2-1.6,0.6-3.7-1.5-4.9l0.4,0.1c-1.4-0.7-0.2-0.8-0.8-1.4c0.2,0,0.3-0.1,0.3,0c-1.4-0.7-0.1-1.8-0.7-2.4l0.9,0l-0.1-1.2        l-0.2,0.4c-2.4-0.3,1.6-0.8,0.1-1.8c0.4-0.8-5-2-3.7-2.8c-1.1-0.5,1.8,0.5,1-0.2c1.3,0,0.8,0.3,1.8,0.2        c-0.6-0.6,1.4-0.9,0.5-1.7l1,0c-1.8-1.1,1.4-1.8-0.3-2.5c-0.8-1,3-0.6,1.1-1.7l1.4-0.4c0.2-0.5-1.6-0.4-1-0.9        c0.8,0.1,0.7-0.6,1.5-0.3c1.4-1.1-1.8-2.4,0.4-3.9c-1.6-0.3-0.7-1.1-1.9-1.3c0.7,0,0.1-1.5,1.7-0.7c0.1,0.1,0.1,0.2-0.2,0.2        l1,0.1c1.8-0.9-1-1.6-0.8-2.4c-0.3,0.3-0.2,0.6-0.9,0.4l0.1-0.8l0.8,0.2l0.5-1.2l-1,0.2c0.5-0.6,2.2-0.8,0.8-1.5        c-0.8-0.3-1.4,0.6-1.7,0c0.7-0.8,1.7-2,1.9-3c-1.1,0.1-1.1-0.1-1.4-0.4l1-0.1c-1.4-1,2.2-0.5,1-1.5l0.7,0.1l-2.1-0.2        c-2-0.8,2-0.6-0.7-1.5c0.2,0.4-2.2,0.3-1.8-0.2l1,0.1c-0.2-0.3-0.6-0.3-0.4-0.5c0.5,0.1,1.4,0,1.2-0.4l1.2,0.2l-1.8-0.7        c1-0.7-0.3-1.5,1-1.8c0,0,0.6-1.3-0.9-1.5c0.9,0.2,1.2-0.5,2.3-0.4c-1.1-0.3-2-1.2-0.9-1.6l0.1,0.1c1-1.5-1.7-2.3-0.4-3.7        c-1.1,0.1-0.6-0.6-2-0.3c-1.5-1.2,2.8-2.6-1.7-2.8c-0.3-0.6,1-0.8,1.2-1.1l0.3,0.1c-0.4-1.1-0.5-1.4-0.5-2.3        c-0.5-0.4-2.6-0.3-2.1-1.1c0.9,0.2,0.7-0.1,0.7-0.4c0.1,0.2,0.5,0.2,1-0.2c-0.3,0-0.4-0.1-0.6-0.2c0.1,0,0.1,0,0.2,0        c-0.3-0.4-0.6-0.3-0.7-0.1c-0.1,0-0.3,0-0.5,0.1c1.1-0.6-0.2-1.3,1.3-1.5c-0.4-1.4-2-2.3-2.6-3.4c0.7-0.2,1.4,0,1.7,0.4        l-0.3-0.8c1.1-0.1,0.6,0.4,0.9,0.7c1.7-1.1-1.9-1.9-0.3-3.2l-0.9-0.2l0.1-0.1c-0.4,0-1.1-0.2-1.2-0.3c0.9-0.2,2.1-0.1,2.1-0.7        c0.9-0.5-0.5-1.3-1.1-1.8c-0.1,0.3-0.7,0.3-1,0.1c-0.1-0.3,0.9-0.5,0.5-0.7l1.3-0.1c-1.2,0.2-1.3-0.7-1.8-0.7        c0.9-0.2,0.8,0.4,1.5,0.4c-0.2-1.1-0.1-0.6-0.3-1.7c-1-0.5-1.2,0.2-2.3,0c-0.3-0.5-1.2-1-0.5-1.7l-1.1,0.3        c-0.9-1-0.8-1.6,0.2-2.3c-9.6-7-12.5-0.8-12.5-0.8C875.6,586.3,879,587.6,880.1,591.1z"/>
					</g>
				</g>
			</g>
		</g>
	</g>
	<g>
		<g>
			<g>
				<g>
					<g>
						<path class="st8" d="M1020.6,565.7l-0.1,1C1020.7,566.6,1020.8,566.3,1020.6,565.7z"/>
						<path class="st8" d="M1018.3,703.6c-0.1,0.1-0.1,0.1-0.2,0.2C1018.3,703.7,1018.3,703.6,1018.3,703.6z"/>
						<path class="st8" d="M1003.7,591.4C1003.7,591.4,1003.7,591.4,1003.7,591.4c0-0.1,0-0.2,0-0.2L1003.7,591.4z"/>
						<path class="st8" d="M1004,566.5c2,2.4,2.3,4.7,2.4,6.8c0.1,0.5,0,1.1,0.1,1.6c0,0.6,0.1,1.1,0.1,1.8c0.1,1.2,0.1,2.7,0.2,4.5        c-0.3,1.7-0.6,3.5-1,5.1l-0.4,1.3c-0.2,0.4-0.3,0.9-0.5,1.3c-0.2,0.4-0.4,0.9-0.6,1.3c-0.2,0.4-0.4,0.8-0.6,1.3        c0,0.1,0,0.2,0,0.2c0,0.1,0,0.1,0,0.3c-0.1,0.3-0.2,0.5-0.3,0.8c-0.2,0.5-0.5,1-0.8,1.5c-0.3,0.5-0.8,1.1-1.3,1.7        c-0.5,0.6-1.1,1.2-1.7,1.8c-0.7,0.6-1.4,1.2-2.1,1.8c-0.7,0.6-1.3,1.2-2.2,1.8c-0.8,0.6-1.6,1.2-2.2,1.7        c-0.3,0.3-0.6,0.5-0.9,0.8c-0.4,0.3-0.7,0.5-1,0.8l-1.1,0.4c-0.3,0.4-0.7,0.7-0.9,1.1c0.2,0.2,0.3,0.3,0.5,0.5        c0.1,0.1,0.3,0.2,0.4,0.4c0.2,0.2,0.4,0.5,0.5,0.8c0.3,0.5,0.3,1.1,0,1.5l-0.4,0c0.3,0.2,0.5,0.5,0.7,0.8        c0.1,0.1,0.1,0.3,0.2,0.4c0,0.1,0.1,0.2,0.1,0.3c0.1,0.4,0.1,0.8,0.3,0.9l-0.3,0c0,0,0,0.2,0.1,0.4c0,0.2,0.1,0.4,0.1,0.4        l-0.3,0c0.7,0.9,0.2,1.7-0.1,2.2l0.3-0.1c-0.2,0.1-0.3,0.3-0.4,0.4l-0.1,0.1c0,0,0.1,0,0.1,0c0.1,0,0.1,0,0.2,0        c0.2,0,0.4-0.1,0.6-0.1c0.2-0.1,0.4-0.1,0.7-0.1c0.3,0,0.5,0.1,0.7,0.1c0.2,0.1,0.4,0.1,0.5,0.5l-0.2,0.1        c0.8,0.1,1.5,0.2,2,0.4c0.1,0.1,0.2,0.1,0.4,0.2c0.1,0.1,0.3,0.2,0.4,0.4c0.2,0.2,0.4,0.5,0.6,0.8c0.2,0.3,0.3,0.6,0.4,0.9        l0.2,0.5l0.2,0.6c0.3,1,0.7,2.1,1.2,3.1c1-0.2,2.1-0.5,3.2-0.8l0.8-0.2c0.3-0.1,0.6-0.2,0.7-0.1c0.4,0,0.8,0,1.2,0        c1.6-0.1,3.4-0.2,5.2-0.6c-1.6,0.3,0.2,0.6,0,0.8c0.7,0,1.4,0,2.1,0c0.6,0.1,1.2,0.2,1.8,0.3c0.3,0,0.6,0.1,0.8,0.2l0.4,0.1        l0.2,0c0.1,0,0.1,0,0.1,0c0.3,0,0.5,0,0.7,0c0.5,0,0.9-0.2,1.3-0.4c0.4-0.2,0.7-0.6,0.9-1.1c1.6,0.7,1,1.2,0.9,2.1        c0.2-0.5,0.7-0.7,1.2-0.7c0.3,0,0.6,0,0.9,0.1c0.3,0.1,0.6,0.2,0.9,0.4l-0.7,0.1c0,0,0.9,0.4,1.7,0.7c0.4,0.2,0.9,0.4,1.2,0.5        c0.3,0.2,0.5,0.3,0.5,0.3s0.1-0.5,0.2-1c0.1-0.5,0.1-1,0.1-1c1.5,1.6-0.8,2.2,1.1,2.9l0.8-1.3c1.2,0.9,1.6,2.2,2,3.4        c0.2,0.6,0.4,1.3,0.5,1.9c0.1,0.7,0.3,1.3,0.6,2c3.5,3.8,7.2,7.8,9.3,12.7c2.2,4.9,2.8,10.7,0.7,15.5l-1.2,0.3        c-0.8,0-0.3,0.7,0.1,1.5c0.5,0.8,1,1.7,0.2,1.7c0,0,0.1,0.3,0.3,0.7c0.1,0.3,0.2,0.7,0.2,0.7c-0.4,0.2-0.9,0.8-1.1,0.2        c-0.4,1-0.1,1.1,0.2,2c0,0-0.3,0.2-0.7,0.4c-0.2,0.1-0.3,0.2-0.5,0.3c-0.1,0.1-0.2,0.1-0.2,0.1c-0.6,0.9-1,1.8-1.3,2.8        c-0.4,0.9-0.7,1.9-1,2.8c-0.1,0.5-0.3,1-0.5,1.4c-0.2,0.5-0.4,1-0.6,1.4c-0.4,1-1,1.9-1.8,2.7c-1.2,0.8-2.5,1.8-3.7,3        c-1.3,1.1-2.6,2.6-4,3.8c-2.8,2.6-5.8,5.2-8.4,6.7c-0.4,0.3-0.9,0.7-1.4,0.9c-0.5,0.2-1,0.4-1.5,0.6c-0.5,0.2-1,0.3-1.6,0.5        c-0.5,0.1-1.1,0.1-1.7,0.2c-0.6,0-1.1,0.1-1.7,0.1c-0.6,0-1.2-0.1-1.7-0.1c-1.2-0.1-2.3-0.2-3.4-0.5c-2.3-0.4-4.5-1.1-6.6-1.5        c-1.1-0.3-2.1-0.4-3.2-0.5c-1.1-0.2-2.2-0.2-3.3-0.1c-0.2-0.3-1,0-1.1,0.2c0,0-0.5-0.2-1.2-0.4c-0.3-0.1-0.8-0.3-1.2-0.4        c-0.4-0.2-0.9-0.4-1.3-0.6c-1.8-0.7-3.5-1.7-3.5-1.7s-0.5-0.3-1.4-0.7c-0.9-0.5-2-1.2-3.4-1.9c-2.6-1.6-5.9-3.7-8.5-5.4        c-0.7-0.4-1.3-0.8-1.9-1.1c-0.6-0.3-1.2-0.5-1.7-0.7c-1.1-0.2-2-0.1-2.6,0.7c-0.6,0.8-0.9,2.2-0.6,4.7        c0.3,2.4,1.4,5.8,3.9,10.2l-0.4,0.1c2,2,3.7,3.7,5.5,4.7c0.9,0.5,1.8,0.9,2.8,1.2c1,0.2,2,0.4,3,0.4c-0.2,1.2,0.8,1.8,2,2.1        c1.2,0.3,2.5,0.5,3,1.1l-0.2,0.1c1.9-0.2,3.4,0.6,5,1.5c1.6,0.8,3.2,1.6,5,1.2c-0.2,0.2-0.4,0.8-1.1,0.7        c1.2,0.1,2.7,0.1,3.8,0.3c0.6,0.1,1.1,0.2,1.4,0.4c0.4,0.2,0.6,0.4,0.6,0.7c1.5,0,3.1,0.2,4.8,0.2c1.7-0.1,3.4,0,5-0.2        c1.6-0.2,3.2-0.5,4.5-1c1.3-0.5,2.5-1.1,3.3-1.8l-0.2,0.4c0.9-0.9,1.5-1.2,2.2-1.3c0.7-0.2,1.5-0.2,2.5-0.9        c0.2,0.1,0.4,0.2,0.4,0.2c0.9-1,2.4-1.7,3.9-2.3c1.5-0.6,2.9-1.2,3.6-1.9l0.5,0.7c0,0,1-0.5,2-1.2c0.9-0.7,1.9-1.3,1.9-1.3        l-1.5,0.8c-0.4-1.2,0.5-1.3,1.8-1.6c1.3-0.2,2.8-0.8,3.7-2.4c0.7-0.4,1.1-1.2,1.3-2c0.3-0.9,0.4-1.8,0.5-2.8        c0.2-0.9,0.2-1.9,0.5-2.6c0.2-0.8,0.6-1.4,1.4-1.8c0.1-1.8,0.6,2.1,1.3,0c1,0.7-0.1,1.3,1.1,1.5c0.5-1,1.2-1.6,2-2.2        c0.8-0.6,1.7-1.3,2-2.7l0.9,0.4c0.2-2,1.3-3.2,2.3-4.5c1-1.2,2-2.3,1.6-3.8c0.3-1.9,1.2-2.2,2-2.6c0.8-0.4,1.4-0.9,1.1-3.1        l1.7-1.1c0.6-1.6-1.3-1.6-0.3-3.3c0.8,0.3,1.2-2.2,1.7-1c0.6-1,0.7-2.1,0.8-3.3c0-1.1,0-2.3-0.2-3.5c-0.1-1.2-0.3-2.5-0.2-3.8        c0-1.3,0.1-2.7,0.5-4.2c-0.8-0.6-1.2-1.6-1.5-2.5c-0.3-1-0.5-1.9-1.2-2.2c0.8-0.3-1.4-5.7,1-2.9c0.2,0.2,0.3,0.7,0,0.8        l1.1,0.2c0.4-1.9-0.2-3.4-1.2-4.7c-1-1.3-2.2-2.5-2.7-4.1c0.1,1.1,0.7,2.2-0.3,1.7c0,0-0.3-0.7-0.5-1.4        c-0.3-0.7-0.7-1.4-0.7-1.4l1,0.2c0,0-0.5-1.1-0.9-2.2c-0.2-0.5-0.5-1.1-0.6-1.5c-0.2-0.4-0.3-0.7-0.3-0.7s-0.1,0.3-0.2,0.5        c-0.1,0.3-0.3,0.5-0.3,0.5c-0.4-1.1-0.4-2-0.6-2.9c-0.2-0.8-0.6-1.6-2-2.2c-0.7-0.2-0.6,0.4-0.6,0.9c0,0.5,0,0.8-0.9,0        c-0.3-0.7-0.7-1.4-1.2-2.2c-0.4-0.8-0.9-1.7-1.5-2.5c-1.1-1.6-2.4-3.4-3.8-4.6c-0.4,1.1-1.2,0.4-2.2,0l0.5-0.9        c-0.5-0.2-0.9-0.3-1.1-0.5c-0.3-0.1-0.5-0.3-0.6-0.5c-0.3-0.3-0.2-0.6-0.2-1c0-0.7,0-1.4-2-2.1l0.7-0.4c0,0-0.5,0.3-1,0.6        c-0.5,0.3-1,0.6-1,0.6c-2.1,0-2.2-0.7-2.5-1.3c-0.1-0.3-0.3-0.6-0.7-0.8c-0.4-0.2-1.1-0.3-2.3,0c1.5,0.5-0.3,2.3-1.8,1.2        l0.8-0.7c-1-0.2-1.5,0-2.1-0.4c0.8-0.2,0.8-1.2-0.7-1.6l1.4-0.7c0,0-0.2,0-0.5,0.1c-0.3,0-0.7,0.1-1.2,0.2        c-0.8,0.2-1.7,0.4-1.7,0.4c-0.1-0.1-0.2-0.2-0.4-0.3l-0.2-0.1l-0.1-0.1l0,0c0-0.1-0.1-0.1-0.2-0.2c-0.1-0.1-0.3-0.1-0.5-0.1        c-0.3,0-0.6-0.1-0.2-0.7c0,0-0.1-0.2-0.4-0.2c-0.3,0-0.7,0.1-1.8,0.7c0.7-0.4,0.9-0.6,1.3-0.9c0.3-0.3,0.8-0.5,1.5-1        c-0.7,0.4-1.5,0.8-2.1,0.9c-0.5,0.2-0.7,0.1,0.2-0.3l0.3-0.1c0.5-0.3,0.2-0.2-0.5,0c-0.7,0.2-1.9,0.7-2.3,0.8        c-0.4,0.2,0.2-0.1,1.2-0.5c-3,1.1-1,0.3-4.7,1.6c-0.6,0.1-0.2-0.1,0.4-0.4c0.6-0.3,1.4-0.6,2-0.9c1.1-0.5,1.2-0.6-2.4,0        c0.4-0.6,2.6-1,3.2-1.3l0.2,0.1c0.1-0.2,0.2-0.4,0.3-0.5c0.4-0.5,0.7-0.9,1.2-1.4c-0.1-0.3-0.6-0.6-0.9-1.1        c-0.2-0.2-0.2-0.5-0.2-0.8c0-0.3,0.2-0.5,0.6-0.9c0,0.3,0.2,0.4,0.3,0.5c0.1,0.1,0.2,0.1,0.3,0c0.2-0.2,0.5-0.7,0.8-1.2        c-0.2,0.6-0.1,1,1.1,0.1c-0.1-0.3-0.1-0.6-0.1-1c0.1,0,0.1,0,0.2,0.1c0.6-1.7,0.2-1.6-0.3-0.9c-0.1-0.1-0.3-0.1-0.6,0        c1.9-1.1,2.2-4.6,3.6-4.3c0.9-2.7,1-5.2,0.9-7.4c-0.1-2.3-0.5-4.4-0.7-6.6c0.4-0.2,0.7-0.1,1,0.2c0.3,0.4,0.5,1,0.6,1.6        c0,0,0-0.8-0.1-1.6c-0.1-0.8-0.2-1.6-0.2-1.6c1.1,0,0.7,1.9,0.8,2.9c1-1.9,0.4-4.1-0.3-6.1c-0.8-2.1-1.6-4-1.7-6.5l-1.1-0.6        l0-0.3c-0.4,0.2-1.4-0.5-1.8-1.1c0.6-1,2-0.9,0.8-3c0-1.1-0.9-2.2-2-3.2c-0.6-0.5-1.2-0.9-1.8-1.4c-0.6-0.4-1.2-0.8-1.7-1.1        c0.8,1.1,0.1,1.1-0.5,0.9c-0.4-0.4-0.6-0.9-0.8-1.3c-0.2-0.4-0.4-0.8-0.9-0.9l0.7-1.1c-0.2,0.6-1,0.3-1.9,0        c-0.9-0.3-1.8-0.7-2.1-0.6c-0.1-1.2,2,0.3,2.6-0.1c-1.1-0.7-1.7-1.1-2.2-1.3c-0.5-0.2-0.8-0.4-1-0.5c-0.6-0.3-1.1-0.6-3.4-1.3        c-1.4,0-1.3,0.4-1.2,0.8c0.2,0.4,0.5,0.8-0.2,1.2c-1-0.1-2.1-0.2-3.1-0.2c-0.5,0-1-0.1-1.6-0.1c-0.5-0.1-1.1-0.2-1.7-0.4        c0,0,0.2,0.3,0.3,0.6c0.2,0.3,0.3,0.6,0.3,0.6c-0.5,0.1-0.9,0.1-1.3,0.2c-0.4,0.1-0.8,0.2-1.2,0.2c-0.4,0.1-0.7,0.1-1.1,0.1        c-0.3,0.1-0.7,0.1-1,0.1c-1.3,0.1-2.4,0-3.8-0.2c-0.7,0.6-1.4,1-2,1.6c-0.6,0.6-1.1,1.1-1.5,1.7c-0.4,0.6-0.8,1.1-1.1,1.6        c-0.3,0.5-0.5,1-0.7,1.5c-0.2,0.4-0.3,0.9-0.4,1.3c-0.1,0.4-0.1,0.8-0.1,1.1c0,0.7,0.1,1.3,0.3,1.8c0.3,0.9,0.7,1.7,1.2,2.1        c0.5,0.4,1.1,0.5,1.8,0.3c0.6,0.1,1.1,0.1,1.5,0c0.5,0,0.9,0,1.2-0.1c0.4,0,0.7,0,0.9-0.1c0.2,0,0.4,0,0.4,0        c0.3,0,0.5,0,0.8,0c0.3,0,0.5,0,0.7,0c0.5,0,0.9-0.1,1.4-0.2c0.4-0.1,0.9-0.2,1.4-0.3c0.5-0.1,1-0.3,1.5-0.4        c1.1-0.3,2.2-0.4,3.5-0.4C1001.3,565.3,1002.8,565.6,1004,566.5z"/>
					</g>
				</g>
			</g>
		</g>
	</g>
	<g>
		<g>
			<g>
				<g>
					<g>
						<path class="st8" d="M1121.1,582l0.1,0.5C1121.2,582.2,1121.2,582,1121.1,582z"/>
						<path class="st8" d="M1155.6,583.1c0,0,0-0.1,0-0.1C1155.6,583,1155.6,583,1155.6,583.1z"/>
						<path class="st8" d="M1125.8,597.8C1125.8,597.8,1125.8,597.8,1125.8,597.8c0,0,0,0.1,0,0.1L1125.8,597.8z"/>
						<path class="st8" d="M1118.9,596.3c1.8,0.6,2.2,2.8,4.1,2c0.9,0.2,1.9-0.3,2.8-0.5c0.5-1.7,1.2,0,1.7-1.4l0.2,1        c0.2-0.5,0.4-0.8,0.6-0.3l0,0.3c0.3-0.7,0.6-0.3,0.7-0.6l0,0.3l0.3-0.1l-0.1,0.4c0.5-0.8,0.9-0.8,1.3-0.4l0-1.2        c0.8,1.3,1.2-1.1,1.9,0.5l0,0.3c1.1-3,1.5,2.1,2.6-0.7c-0.1,0.4,0,0.6,0,0.9c0.5-0.3,1-0.5,1.1-2.7c0.3,0,0.3,0.7,0.3,1.6        c0-1,0.3-1.4,0.6-1.5l-0.1,0.4l0.8-0.3l-0.1-1.9c0.4,0.6,0,2.3,0.4,1.9l0.1-1.6c0.5,0.3,0.8,2.7,1.3,3.9        c2.2,0.7,4.8-3.1,6.8-0.3l0,1.2c0,1.7,0.7-2.5,0.7-0.9l0.3-0.8c0.1,0.3,0.2,0.6,0.1,1c0.2,0.1,0.2-0.2,0.4-0.7l0.2,1.1        c0.9,0.9,1.7-1.2,2.6-0.7c1,2.2,3.2,0.3,4.5-0.8c1.8-2.5,3.5,4.4,5.4,1.5c0,0.2,0.2-0.3,0.2-0.5l1.6,0.3c0,0,7.7,0.9,2.4-13.5        l0.1-0.4c-0.8-0.9-1.4-1.2-2.1,0.7c0-2.3-0.7-0.3-0.9-1l0-0.2c-0.6,1.8-1-1.5-1.6,0.1c0-0.2,0.1-0.8,0.2-0.8        c-0.4,0.3-0.9,0.8-0.9-0.6c-0.9,0.3-2.1-0.3-2.8,1.8l0.1-0.4c-0.4,1.4-0.4,0.2-0.8,0.9c0-0.2,0-0.3,0-0.3        c-0.4,1.4-1,0.2-1.4,0.8l0-0.9l-0.7,0.2l0.3,0.2c-0.2,2.4-0.5-1.6-1.1,0c-0.5-0.3-1.2,5.1-1.6,3.8c-0.3,1.1,0.3-1.9-0.1-1        c0-1.3,0.2-0.8,0.1-1.8c-0.4,0.6-0.5-1.3-1-0.5l0-1c-0.6,1.8-1-1.3-1.5,0.4c-0.6,0.8-0.3-3-1-1l-0.2-1.4        c-0.3-0.2-0.2,1.6-0.5,1c0-0.8-0.3-0.7-0.1-1.5c-0.6-1.3-1.4,1.8-2.2-0.4c-0.2,1.6-0.6,0.6-0.8,1.9c0-0.7-0.9-0.1-0.3-1.7        c0-0.1,0.1-0.1,0.1,0.2l0.1-1c-0.4-1.9-0.9,1-1.4,0.7c0.1,0.3,0.3,0.2,0.2,0.9l-0.4-0.1l0.1-0.8l-0.7-0.5l0.1,1        c-0.3-0.5-0.4-2.3-0.8-0.8c-0.2,0.8,0.3,1.4-0.1,1.7c-0.4-0.7-1-1.8-1.6-2.1c0,1.1-0.1,1.1-0.3,1.3l0-1        c-0.6,1.4-0.1-2.2-0.8-1.1l0.1-0.7l-0.2,2.1c-0.6,2-0.2-2.1-0.9,0.6c0.2-0.2,0,2.2-0.2,1.8l0.1-1c-0.2,0.2-0.2,0.6-0.3,0.4        c0.1-0.5,0.1-1.4-0.1-1.2l0.2-1.2l-0.5,1.8c-0.3-1-0.9,0.2-1-1.1c0,0-0.7-0.7-0.9,0.8c0.2-0.9-0.2-1.3-0.1-2.4        c-0.2,1-0.8,1.9-1,0.7l0-0.1c-0.8-1.2-1.5,1.5-2.2,0.1c0,1.2-0.4,0.5-0.3,2c-0.8,1.4-1.3-3.1-1.7,1.5        c-0.4,0.2-0.4-1.1-0.5-1.3l0.1-0.2c-0.7,0.3-0.9,0.4-1.3,0.3c-0.3,0.4-0.4,2.6-0.8,2c0.2-0.8,0-0.7-0.2-0.7        c0.1-0.1,0.2-0.4,0-1c0,0.3-0.1,0.4-0.1,0.6c0-0.1,0-0.1,0-0.2c-0.3,0.3-0.2,0.6-0.1,0.7c0,0.1,0,0.3,0,0.5        c-0.2-1.1-0.8,0-0.8-1.4c-0.8,0.3-1.5,1.8-2.2,2.3c0-0.7,0.1-1.4,0.3-1.7l-0.5,0.3c0-1.1,0.3-0.6,0.5-0.8        c-0.5-1.8-1.3,1.7-1.9,0.1l-0.2,0.8l0-0.1c0,0.4-0.2,1.1-0.3,1.2c-0.1-0.9,0.1-2.2-0.3-2.1c-0.2-0.9-0.8,0.4-1.1,0.9        c0.2,0.2,0.1,0.7,0,1c-0.2,0-0.2-0.9-0.4-0.5l0-1.3c0,1.2-0.5,1.3-0.6,1.8c-0.1-0.9,0.3-0.8,0.4-1.5c-0.7,0.1-0.3,0-1,0.1        c-0.4,0.9,0,1.2-0.2,2.3c-0.3,0.2-0.7,1.1-1,0.3l0.1,1.1c-0.6,0.8-1,0.7-1.3-0.4c-4.8,8.9-1.4,12.4-1.4,12.4        C1115.8,600.3,1116.8,597.1,1118.9,596.3z"/>
					</g>
				</g>
			</g>
		</g>
	</g>
	<g>
		<g>
			<g>
				<g>
					<g>
						<path class="st8" d="M1125.4,612.7l0.2,0.5C1125.6,612.9,1125.5,612.8,1125.4,612.7z"/>
						<path class="st8" d="M1161.5,611.8c0,0,0-0.1,0-0.1C1161.5,611.8,1161.5,611.8,1161.5,611.8z"/>
						<path class="st8" d="M1131.5,628.1L1131.5,628.1c0,0,0,0.1,0,0.1L1131.5,628.1z"/>
						<path class="st8" d="M1124.4,627.2c1.9,0.5,2.5,2.6,4.4,1.7c0.9,0.1,1.9-0.4,2.8-0.7c0.4-1.7,1.2-0.1,1.6-1.5l0.2,1        c0.2-0.5,0.4-0.8,0.5-0.3l0,0.3c0.2-0.7,0.5-0.3,0.7-0.7l0,0.3l0.3-0.1l0,0.4c0.4-0.8,0.9-0.8,1.3-0.5l-0.1-1.2        c0.9,1.3,1.2-1.1,2,0.4l0,0.3c0.9-3.1,1.6,2,2.6-0.9c-0.1,0.4,0.1,0.6,0.1,0.9c0.5-0.3,1-0.5,0.9-2.8c0.4,0,0.3,0.7,0.4,1.6        c0-1,0.3-1.4,0.5-1.5l-0.1,0.4l0.8-0.4l-0.2-1.9c0.4,0.5,0.2,2.3,0.5,1.8l0-1.6c0.6,0.3,1,2.7,1.5,3.8        c2.3,0.6,4.7-3.4,6.9-0.6l0.1,1.2c0,1.7,0.6-2.5,0.7-1l0.2-0.8c0.1,0.3,0.2,0.6,0.1,1c0.2,0.1,0.2-0.2,0.4-0.7l0.3,1.1        c0.9,0.8,1.7-1.2,2.6-0.8c1.1,2.2,3.3,0.2,4.6-1c1.8-2.6,3.7,4.3,5.6,1.4c0.1,0.2,0.2-0.3,0.2-0.5l1.6,0.3c0,0,2,0.2,3.3-1.4        c1.3-1.6,1.9-5-1-12.1l0.1-0.4c-0.9-0.9-1.5-1.1-2.1,0.7c-0.1-2.3-0.7-0.3-1-1l0-0.2c-0.6,1.8-1.1-1.5-1.7,0.1        c0-0.2,0-0.8,0.2-0.9c-0.4,0.3-0.9,0.8-1-0.6c-0.9,0.3-2.3-0.3-2.9,1.8l0-0.4c-0.4,1.4-0.4,0.2-0.8,0.9c0-0.2,0-0.3,0-0.3        c-0.4,1.4-1.1,0.2-1.4,0.8l0-0.9l-0.7,0.2l0.3,0.2c-0.1,2.4-0.6-1.5-1.1,0c-0.5-0.3-1,5.1-1.6,3.9c-0.3,1.1,0.2-1.9-0.2-1        c0-1.3,0.2-0.8,0.1-1.8c-0.4,0.6-0.6-1.3-1.1-0.4l0-1c-0.6,1.8-1.1-1.3-1.5,0.4c-0.6,0.8-0.4-3-1-1l-0.3-1.3        c-0.3-0.2-0.2,1.7-0.5,1c0-0.8-0.4-0.7-0.2-1.5c-0.7-1.3-1.4,1.9-2.3-0.3c-0.2,1.7-0.6,0.7-0.8,1.9c0-0.7-0.9-0.1-0.4-1.7        c0-0.1,0.1-0.1,0.1,0.2l0.1-1c-0.5-1.8-0.9,1-1.4,0.7c0.2,0.3,0.4,0.2,0.2,0.9l-0.5-0.1l0.1-0.8l-0.7-0.5l0.1,1        c-0.4-0.5-0.5-2.3-0.9-0.8c-0.2,0.8,0.3,1.4,0,1.7c-0.5-0.7-1.2-1.7-1.8-2c0.1,1.1-0.1,1.1-0.2,1.3l0-1        c-0.6,1.4-0.3-2.2-0.9-1.1l0-0.7l-0.1,2.1c-0.5,2-0.3-2.1-0.9,0.6c0.2-0.2,0.2,2.2-0.1,1.8l0.1-1c-0.2,0.2-0.2,0.6-0.3,0.4        c0.1-0.5,0-1.4-0.2-1.2l0.1-1.2l-0.4,1.8c-0.4-1-0.9,0.3-1.1-1.1c0,0-0.8-0.6-0.9,0.8c0.1-0.9-0.3-1.3-0.2-2.4        c-0.2,1-0.7,1.9-1,0.8l0-0.1c-0.9-1.1-1.4,1.6-2.3,0.2c0.1,1.2-0.4,0.5-0.2,2c-0.8,1.5-1.6-3-1.7,1.6        c-0.4,0.3-0.5-1.1-0.7-1.3l0.1-0.2c-0.7,0.4-0.9,0.4-1.4,0.4c-0.2,0.5-0.2,2.6-0.7,2.1c0.1-0.8-0.1-0.7-0.2-0.7        c0.1-0.1,0.1-0.4-0.1-1c0,0.3-0.1,0.4-0.1,0.6c0-0.1,0-0.1,0-0.2c-0.3,0.3-0.2,0.6-0.1,0.7c0,0.1,0,0.3,0.1,0.5        c-0.3-1.1-0.8,0.1-0.9-1.3c-0.8,0.4-1.4,1.9-2.1,2.5c-0.1-0.7,0-1.4,0.2-1.7l-0.5,0.3c0-1.1,0.3-0.6,0.4-0.9        c-0.7-1.7-1.2,1.8-1.9,0.2l-0.1,0.9l0-0.1c0,0.4-0.1,1.1-0.2,1.2c-0.1-0.9-0.1-2.2-0.4-2.1c-0.3-0.9-0.8,0.5-1.1,1        c0.2,0.1,0.2,0.7,0.1,1c-0.2,0-0.3-0.9-0.4-0.5l-0.1-1.3c0.1,1.2-0.4,1.3-0.4,1.8c-0.1-0.9,0.2-0.8,0.2-1.5        c-0.7,0.2-0.3,0.1-1,0.2c-0.3,1,0.1,1.2,0,2.3c-0.3,0.3-0.6,1.2-1,0.4l0.2,1.1c-0.6,0.9-0.9,0.8-1.4-0.3        c-2,4.7-2.1,7.8-1.6,9.7c0.4,2,1.4,2.7,1.4,2.7C1121.6,631.5,1122.3,628.2,1124.4,627.2z"/>
					</g>
				</g>
			</g>
		</g>
	</g>
</g>
<path class="st9" d="M1177.9,631c-1.3-1.2-3.4-1.1-4.6,0.2L996.8,818.7c-7,0.3-14.1,0.6-21.1,1c-8.8,0.4-17.9,0.9-25.6,4.9  c-8.2,4.3-14,12.1-19.5,19.6c-4.8,6.6-9.7,13.8-10.5,21.7c-1.5,0.8-2.9,1.9-4,3.3c-3,4-6,8-9.1,12c-19.2,24.6-39.1,48.6-59.8,71.9  c-10.9,12.3-21.9,24.3-33.2,36.2c-9.2,9.7-18.3,20.1-28.6,28.8c-1.4,0.9-2.8,1.8-4.3,2.6c0,0,0,0,0,0c-1.3-0.7-2.5-1.5-3.8-2.3  c-9.7-8.5-17.3-19.1-25.3-29.2c-11.1-14.3-22.2-28.5-33.3-42.8c-21.8-28-43.5-55.9-65.3-83.9c-1.2-1.6-2.7-2.9-4.5-4.1  c-0.4-2.2-1.2-4.2-2.7-5.7c-1.9-1.8-4.6-2.3-7.1-2.8c-12.5-2.3-25-3.7-37.6-4.5c-0.1,0.5-0.3,0.9-0.4,1.4c-1-0.9-2.1-1.7-3.2-2.4  c-0.5,0.1-1,0.1-1.5,0.2c-0.2-0.4-0.6-0.8-1.2-0.8c-7.9-0.7-15.8-1-23.6-1.1l0.5-12.1c0-0.3,0-0.7,0-1l0-0.8c0-0.6,0.1-1.2,0.1-1.8  l0.1-1.9c47.2-10,88-44.2,94.8-99c1.4-10.9,1.8-20.9,1.8-29.3c2-0.5,3.8-1.2,5.3-2.4c4,8.1,7.4,16.5,10,25.2  c1.9,6.3,10.8,6.4,12.7,0.1c0-0.1,0-0.1,0-0.2c2.6-8.9,4.6-18.1,6-27.3c2.8-17.7,3.6-35.7,3-53.6c-0.2-6.2-0.6-12.3-1.2-18.3  c-3.6-37.2-15-71.9-37.8-102.7c-41.3-55.7-118.3-85.5-183.7-64.3c-15.8-29-46.8-51.2-78.7-51.2c-45.6,0-80,39.6-80,85.3  c0,27.7,15.2,54.4,37.4,71.1c0,0.1,0,0.2-0.1,0.4c-6,34.2-3.4,70.8,7.3,104.4c-7.7,6.8-12.6,16.7-12.6,27.8  c0,20.4,16.5,36.9,36.9,36.9c3.3,0,6.6-0.4,9.6-1.3c5.2,6.4,10.9,12.4,17,18c2,4.9,4,9.5,6.1,13.6c18,36.2,49.2,57.7,83.4,66  l-1,22.3c-6.1,0.7-12.2,1.6-18.4,2.4c-3.3,0.1-6.6,0.3-9.9,0.6c-0.2,0-0.3,0.1-0.5,0.1c-0.3,0.1-0.5,0.1-0.8,0.1  c-1.9,1.5-3.6,3.3-5.2,5.1c-0.2,0.2-0.4,0.5-0.6,0.7c-22.6,2.3-45.2,4.4-67.8,5.3c-4.1-2.3-8.6-3.6-13.2-3c-3,0.3-5.8,1.1-8.2,2.5  c-13.4,7.6-16.2,27-20.1,40.4c-5.6,19-10.9,38.2-15.9,57.4c-10,38.4-18.6,77.2-26,116.2c-14.1,74.7-23.3,169.7-27.9,245.6  c0.1,0.1,0.2,0.2,0.3,0.3c5.2,0.8,10.4,1.4,15.6,1.7c0.2,3,0.5,5.9,0.8,8.9c-6.5,0.5-12.6,5.1-15,11.5c-1.5,3.9-1.6,8.2-1.6,12.4  c0,6.9,0.5,13.8,1.4,20.7c0.6,4.5,1.3,9,3.5,12.9c2.1,3.9,5.9,7.1,10.2,7.2c4.3,0.2,8.6-3.5,8.6-8c0.6,4.3,4.8,7.4,8.9,7  c4.1-0.4,7.5-4.1,8.2-8.4c0.3,3.8,3.2,7.1,6.7,7.8c0,2,0,4,0,6h339.9c-0.3-21.5-1.3-43-2.6-64.5c-0.9-14.2-2.1-28-6-41.7  c-0.2-0.7-0.4-1.4-0.6-2.1c0.3-0.2,0.6-0.3,0.9-0.5c-0.3-1.1-0.6-2.3-0.9-3.4c0.3-0.2,0.6-0.3,0.9-0.5  c-11.4-42.3-21.2-85.1-29.4-128.2c1.1-9.2,2.9-18.3,5.3-27.4c7.1-25.6,20-49.2,28-74.5c4.3-13.5,7-28,6.7-42.1c0-1,0-2,0-3  l17.3,22.2c9.1,11.7,17.7,23.9,29,33.6c15.1,13,34.7,23.4,55.3,21.1c11.7-1.3,21.9-4.2,32.1-10.2c8.1-4.8,15.5-11.3,22.2-17.8  c23.2-22.5,44.9-46.9,66.2-71.3c22-25.4,43.2-51.6,63.5-78.4c1.9-2.4,2.6-5.4,2.1-8.3c9.4-2.3,16.8-11,22.8-19.2  c4-5.3,8.1-11,8.8-17.7c0.8-7.5-3.2-14.9-8.9-20l184-210.5C1179.4,634.3,1179.3,632.2,1177.9,631z M364.7,1276.4c0-0.2,0-0.4,0-0.6  c0,0.1,0.1,0.2,0.1,0.3C364.9,1276.2,364.8,1276.3,364.7,1276.4z M372.6,1186.3c0.2-1.3,1-7.6,1.3-9.6c1.1-8.2,2.3-16.3,3.5-24.5  c2.8-18.8,6-37.5,9.5-56.1c5.6-30.1,12-60.1,19.2-89.9c3.5,44.8,5.8,89.5,4.8,126.8c-8.2,48.6-27.7,64.7-42.8,111.7  c-0.5,1.4-0.9,2.8-1.4,4.2c1.4-18.8,2.9-37.1,4.6-51.8C371.7,1193.5,372.1,1189.9,372.6,1186.3z"/>
<g>
	<g>
		<path class="st10" d="M902,824.6c7.8-4.1,16.9-4.5,25.6-4.9c7.1-0.3,14.2-0.6,21.3-1c1.8-0.1,3.6-0.1,5.1,0.8    c2.1,1.3,2.8,4.1,2.2,6.4c-0.6,2.4-2.2,4.3-3.9,6c-7.7,7.5-18.9,11.3-29.5,10c2.7,10.4,2.2,21.9-2.9,31.3    c-5.1,9.4-15.2,16.4-26,16.1s-21.1-8.7-22.1-19.4c-0.9-9.4,5-18,10.6-25.7C888,836.7,893.8,828.9,902,824.6z"/>
		<path class="st11" d="M1125.3,631.2L920.3,849c-3.4,3.6-3.2,9.2,0.4,12.6c3.6,3.4,9.2,3.2,12.6-0.4c0.1-0.1,0.2-0.2,0.2-0.2    l196.8-225.2c1.2-1.4,1.1-3.5-0.3-4.7C1128.6,629.8,1126.5,630,1125.3,631.2z"/>
		<path class="st12" d="M919.2,903.6c-6,0.1-11.9-2.8-16.4-6.8c-4.3-3.9-7.7-9.1-8.6-14.9c-1.5-9.5,4.9-17.9,10.1-25.9    c3.1-4.7,6.4-9.2,9.9-13.2c4.8-5.6,12.8-7.4,19.5-4.4c4,1.8,7.8,3.9,11.2,6.6c6.4,5.1,11.1,13,10.3,21.2    c-0.7,6.6-4.8,12.3-8.8,17.7C939.4,893.2,930.8,903.4,919.2,903.6z"/>
	</g>
	<path class="st8" d="M883.3,866.8C883.3,866.7,883.3,866.7,883.3,866.8c-5-3.4-11.7-2.3-15.3,2.5c-3,4-6,8-9.1,12   c-19.2,24.6-39.1,48.6-59.8,71.9c-10.9,12.3-21.9,24.3-33.2,36.2c-9.2,9.7-18.3,20.1-28.6,28.8c-1.4,0.9-2.8,1.8-4.3,2.6   c0,0,0,0,0,0c-1.3-0.7-2.5-1.5-3.8-2.3c-9.7-8.5-17.3-19.1-25.3-29.2c-11.1-14.3-22.2-28.5-33.3-42.8c-21.8-28-43.5-55.9-65.3-83.9   c-5.2-6.7-16.1-10-24.2-10c-9,0-17.8,3.6-24.2,10s-10,15.2-10,24.2c0,10,4.2,16.7,10,24.2c21.3,27.4,42.7,54.8,64,82.2l32,41.1   c9.1,11.7,17.7,23.9,29,33.6c15.1,13,34.7,23.4,55.3,21.1c11.7-1.3,21.9-4.2,32.1-10.2c8.1-4.8,15.5-11.3,22.2-17.8   c23.2-22.5,44.9-46.9,66.2-71.3c22-25.4,43.2-51.6,63.5-78.4c3.1-4.1,3-9.9-0.3-13.9C911.1,885.2,888.1,870,883.3,866.8z"/>
	<path class="st13" d="M446.2,493.1c0,45.6-37,82.6-82.6,82.6s-86.9-42.8-86.9-88.4s34.4-85.3,80-85.3S446.2,447.4,446.2,493.1z"/>
	<path class="st14" d="M633.5,1400c-0.3-21.5-1.3-43-2.6-64.5c-0.9-14.2-2.1-28-6-41.7c-3.4-11.6-7-23-8.7-35   c-1.1-2.1-2.4-4.1-3.9-5.9c-0.1-0.1-0.1-0.2-0.2-0.2c-80.2-14.9-163.4-14.3-243.3,1.9c-1.8-4.7-6.5-8.2-11.2-7.4   c-1.2-1.3-2.7-2.3-4.4-3c0,0,0-0.1-0.1-0.1c-1.1-2.7-3.2-4.8-6.4-5.8c-5-1.4-12,1.7-12.8,7.7c-0.1,0.8-0.3,1.7-0.4,2.5   c-0.1,0.2-0.2,0.3-0.3,0.5c-0.8,1.4-1.6,2.7-2.4,4.1c-9.1,12.2-16.2,25.7-21.4,40.5c-1.3,3.6-2.4,7.4-3.3,11.1   c-1.2,2.3-2.3,4.7-3.2,7.1c-9.5,23.3-9.2,49.5-9.3,74.4c0,4.6,0,9.1,0,13.7H633.5z"/>
	<path class="st12" d="M325.1,1341.6c-4.8-8.9-10.9-13.5-20.7-15.5c-0.7-5.9-1.5-11.8-2.3-17.7c-0.7-4.7-6.6-7.3-10.8-6.1   c-2.5,0.7-4.2,2.2-5.2,4.2c-2.5,0-4.9,0.1-7.4,0.1c-0.5,0-1,0-1.4,0c-4.5-6-16.3-4.4-15.9,4.9c0.3,6.5,0.8,12.9,1.5,19.3   c-6.5,0.5-12.6,5.1-15,11.5c-1.5,3.9-1.6,8.2-1.6,12.4c0,6.9,0.5,13.8,1.4,20.7c0.6,4.5,1.3,9,3.5,12.9c2.1,3.9,5.9,7.1,10.2,7.2   c4.3,0.2,8.6-3.5,8.6-8c0.6,4.3,4.8,7.4,8.9,7c4.1-0.4,7.5-4.1,8.2-8.4c0.3,4.3,4,8,8.1,8c4.1,0,7.9-3.6,8.2-7.9   c-1,5.1,6,8.5,10.2,5.8s5.6-8.4,5.7-13.6c0.1-5.2-0.1-7-0.1-12c0.3,0.1,0.7,0.1,1,0.1C332,1366,328.6,1348,325.1,1341.6z"/>
	<path class="st15" d="M629.1,1057.2c8-25.3,10.7-54.2-2.2-77.4c-5.6-10-13.8-18.5-18.2-29.1c-4.1-9.8-4.6-20.6-5-31.2   c-0.8-17.6-1.5-35.1-2.3-52.7c-0.2-3.7-0.5-7.7-3.2-10.2c-1.9-1.8-4.6-2.3-7.1-2.8c-81.2-15-164.3,6-246.9,7.4   c7.4,75.4,20.8,191.1,18.6,271.8c-8.2,48.6-27.7,64.7-42.8,111.7c-3.5,10.9-8.4,22-2.3,32.9c2.6,4.7,7.8,7.3,12.4,9.6   c6.3,3.1,12.7,5.8,19.2,8.3c24.3,9.4,50.5,14.1,76.5,14.6c2,0,3.7-0.4,5.1-1.2c38.4,2.4,77.2,1.4,115.5-2c9.3-0.8,18.6-1.8,27.8-3   c0.5-0.1,0.8-0.1,1.1-0.1c0,0,0,0,0.1,0c1-0.1,2-0.3,3-0.4c1.9-0.3,3.8-0.6,5.7-0.9c3.5-0.6,7.1-1.1,10.6-1.8c6-1.1,12-2.4,17.9-4   c2.3-0.6,4.5-1.3,6.7-2.2c0.8-0.3,0.6-0.2-0.6,0.1c0.7-0.3,1.4-0.7,2.1-1c1.5-0.8,3-1.5,4.5-2.3c-11.6-42.8-21.5-86.1-29.7-129.7   c1.1-10,2.9-20,5.6-29.8C608.2,1106.2,621.1,1082.6,629.1,1057.2z"/>
	<path class="st16" d="M500.3,1305.9c15.4-0.5,30.8-1.5,46-2.9c9.3-0.8,18.6-1.8,27.8-3c0.5-0.1,0.8-0.1,1.1-0.1c0,0,0,0,0.1,0   c1-0.1,2-0.3,3-0.4c1.9-0.3,3.8-0.6,5.7-0.9c3.5-0.6,7.1-1.1,10.6-1.8c6-1.1,12-2.4,17.9-4c2.3-0.6,4.5-1.3,6.7-2.2   c0.8-0.3,0.6-0.2-0.6,0.1c0.7-0.3,1.4-0.7,2.1-1c1.5-0.8,3-1.5,4.5-2.3c-11.6-42.8-21.5-86.1-29.7-129.7c1.1-10,2.9-20,5.6-29.8   c7.1-25.6,20-49.2,28-74.5c8-25.3,10.7-54.2-2.2-77.4c-5.6-10-13.8-18.5-18.2-29.1c-4.1-9.8-4.6-20.6-5-31.2   c-0.8-17.6-1.5-35.1-2.3-52.7c-0.2-3.7-0.5-7.7-3.2-10.2c-1.9-1.8-4.6-2.3-7.1-2.8c-12.5-2.3-25-3.7-37.6-4.5   c-0.8,2.9-1.7,5.9-2.5,8.8c-5.5,19.8-10.6,39.8-15.8,59.7c-5.1,19.6-11.6,39-15.9,58.8c-8.2,37.8-7.1,76.8-5.8,115.2   c1.2,38.7,0.7,76.9-2.3,115.6C508.4,1237.8,504.6,1271.9,500.3,1305.9z"/>
	<path class="st14" d="M571.3,873c-3.7-6.7-7.9-13.1-12.3-19.3c-2.6-3.5-5.3-7.1-9.1-9.3c-6.3,1.1-13.7,0.3-19.6,0.2   c-17.8-0.3-35.8,1.7-53.5,3.1c-14.7,1.1-29.6,0.6-44.3,1.8c-0.2,0-0.3,0.1-0.5,0.1c-0.3,0.1-0.5,0.1-0.8,0.1   c-1.9,1.5-3.6,3.3-5.2,5.1c-6.9,7.6-13,15.8-18.2,24.6c-0.9,1.5-1.8,3.1-1.6,4.8c0.2,1.9,1.7,3.3,3.1,4.6   c28.9,26.2,58.8,51.3,89.5,75.3c5.4,4.2,10.8,8.4,17.1,10.9c24.1-22.3,43.6-49.5,56.8-79.5c1.4-3.1,2.7-6.2,2.8-9.6   C575.7,881.3,573.5,877,571.3,873z"/>
	<path class="st10" d="M472.7,911c19.3,31.5,37.2,62.8,38.3,64.1c0.6,0.7,1.8,0.7,2.3-0.1c0,0,0,0,0,0c1.2-1.9,13.4-36.4,22.6-69.6   c7.6-27.5,12.5-54.1,12.7-60.2c0-0.8-0.5-1.4-1.3-1.5c-37.7-3.2-74.4,0.5-112.8,6.3C434.2,850.1,454.1,880.6,472.7,911z"/>
	<path class="st10" d="M530.1,893.5c0.2-0.1,0.3-0.2,0.3-0.3c0.1-0.1,0.1-0.3,0.2-0.4c0.4-0.8,0.6-1.1,0.4-0.8   c0.7-1.8,1.3-3.7,1.7-5.6c0.9-3.4,1.6-6.9,2.4-10.4c1.7-7.8,3.7-15.4,5.3-23.2c0.2-2.8,0.3-5.7,0.9-8.4c-5.9-0.6-11.8-1.2-17.7-1.1   l1.3-29.6l-62.6-2.8l-1.6,36.8c-5,0.3-10.1,0.7-15.1,1.2c2.2,5.5,4.1,11.6,4.7,17.7c2,6.4,4.5,12.7,7.8,18.5   c19.3,16.3,40.4,31.9,52.8,38.7c0.2-0.2,0.3-0.4,0.5-0.6c6.3-5.3,12.4-12.3,17.9-20C527,900.4,526.7,896.5,530.1,893.5z"/>
	<path class="st8" d="M375.6,881.5c-0.5-1.1-1.1-2.2-1.7-3.3c-5.8-10.3-17.2-21.8-29.6-20.3c-3,0.3-5.8,1.1-8.2,2.5   c-13.4,7.6-16.2,27-20.1,40.4c-5.6,19-10.9,38.2-15.9,57.4c-10,38.4-18.6,77.2-26,116.2c-14.1,74.7-23.3,169.7-27.9,245.6   c0.1,0.1,0.2,0.2,0.3,0.3c13.9,2.2,28.2,2.4,42.2,2.2c8.3-0.1,16.7-0.4,25-0.6c0.1,0,0.3-0.1,0.3-0.3c0.1-0.7,0.2-1.5,0.2-2.2   c2.1-34.4,5-88.1,9.1-122.3c0.4-3.6,0.9-7.2,1.3-10.8c0.2-1.3,1-7.6,1.3-9.6c1.1-8.2,2.3-16.3,3.5-24.5c2.8-18.8,6-37.5,9.5-56.1   c7-37.8,15.3-75.3,24.8-112.6c4.6-18.1,9.2-36.4,14.9-54.2C383.4,913.8,382.3,896.3,375.6,881.5z"/>
	<path class="st17" d="M325.5,519c-5.2,12.7-9,26.1-11.4,39.7c-14.3,81.4,19.8,176.2,98.1,212.2c-14.3-72.8-11.7-149,8.5-220.4   c4.3-15.1,9.4-30.8,6.2-46.2c-3.2-15.4-18.3-29.6-33.4-25.4c-6.7,1.9-20.6-3.1-43.8,12.6C339.9,498.3,332,507.9,325.5,519z"/>
	<path class="st18" d="M462.3,810.9c0,0-1.1,25.5-1.1,25.5c-0.2,4.7,29.2,5.8,32.4,5.8c4.2,0,30.2-1.5,30.3-3c0,0,1.1-25.6,1.1-25.6   L462.3,810.9z"/>
	<g>
		<path class="st12" d="M620.4,595.2c-33.7-41.4-82.3-69.5-135.4-71.9c-30.4-1.4-61.9,2.8-88,19.2c-11.7,7.4-23.2,17.2-30.7,28.3    c-7.4,10.9-12.7,23.1-13.8,34.9c-0.3,2.9-1.2,5.6-2.6,7.9c-2.3,55.4,12.6,112.8,28.4,144.4c53.8,108.2,226.3,85.9,241-32.1    c2.8-22.9,1.7-41.9,0.6-50.3C616.9,654.1,620.7,634,620.4,595.2z"/>
		
			<ellipse transform="matrix(0.999 -4.509503e-002 4.509503e-002 0.999 -31.834 19.9845)" class="st19" cx="427" cy="715.6" rx="25.1" ry="16.7"/>
		
			<ellipse transform="matrix(0.999 -4.509701e-002 4.509701e-002 0.999 -31.55 27.691)" class="st19" cx="597.9" cy="713.1" rx="21.6" ry="14.3"/>
		<circle class="st12" cx="345.6" cy="690.9" r="36.9"/>
		<path class="st20" d="M526.6,693.4c-0.2-3.3-5.4-3.3-5.2,0c0.4,5.7,3.1,10.2,6.5,14.6c3.2,4,7.6,8.1,8.2,13.5    c1.1,9.5-13.3,8.6-19.4,8.6c-3.3,0-3.3,5.2,0,5.2c8.3-0.1,22.3,0.2,24.4-10.4C543.7,711.7,527.4,705.5,526.6,693.4z"/>
		<g>
			<ellipse class="st13" cx="463.3" cy="667.8" rx="15.8" ry="19.4"/>
			<circle class="st8" cx="471.2" cy="667.5" r="4.4"/>
			<path class="st13" d="M472,648.3c-4.2-2.1-9.3-1.7-13.7-0.8c-3.9,0.8-7.2,2.5-10.4,4.9c-2.5,1.8-8.8,7.4-11.9,4.4     c-1.7-1.6-4.4,0.5-3.2,2.5c5.2,8.8,16.8-1.4,22.5-4.1c2.6-1.2,7-1.7,10.2-1.6c1.5,0.1,2.9,0.4,4.2,1.2c1.1,0.8,0.8,3.2,1.7,4.3     c1.1,1.4,3.1,2,4.5,0.6C479.4,656,475.9,650.2,472,648.3z"/>
		</g>
		<g>
			<ellipse class="st13" cx="576.4" cy="664.4" rx="15" ry="18.4"/>
			<circle class="st8" cx="583.8" cy="664.4" r="4.1"/>
			<path class="st13" d="M583,646.4c-2.7-1.7-6.3-2-9.4-1.8c-3.4,0.2-6.5,1-9.4,2.7c-1.7,1-3.3,2.2-4.9,3.3c-1.5,1-2.8,1.3-4.5,1.8     c-1.7,0.6-2.3,3.1-0.5,4c5.3,2.9,11.4-4,16.4-5c2.2-0.4,4.5-0.6,6.7-0.2c1,0.2,2.1,0.5,2.9,1.2c1.1,0.9,1.2,2.3,2.6,3     c1.3,0.7,3.2,0.4,3.9-1C588.4,651.2,585.7,648.1,583,646.4z"/>
		</g>
		<path class="st8" d="M527.4,752.7l-62.7,0c-2.8,0-4.7,2.9-3.5,5.5c1.8,3.9,4.4,9.1,7.2,13c10.5,14.2,35.8,17.7,51.7,6.5    c7.2-5.1,10-11.3,12.1-18.8C532.9,755.7,530.6,752.7,527.4,752.7z"/>
	</g>
	<path class="st8" d="M501.4,916.9c-8.3-0.3-16.6,0.1-24.8,0.5c17.8,29.2,33.5,56.6,34.5,57.8c0.6,0.7,1.8,0.7,2.3-0.1c0,0,0,0,0,0   c1-1.7,10.7-28.7,19.2-57.8C522.1,917.6,511.8,917.3,501.4,916.9z"/>
	<path class="st17" d="M473.2,620.5c-11.5-1-23.4-1.6-34.1,3.3c-2,0.9-1.5,4.2,0.6,4.7c11,2.4,22.3,1.6,33.5,3   C480.2,632.3,480.3,621.1,473.2,620.5z"/>
	<path class="st21" d="M500.6,642.7c-4-3.1-11.6-3.7-16.8-4c-24.2-1.3-48.7-1.2-72.3,4.4c-1.4,0.3-2.9,0.7-3.9,1.7   c-1.5,1.4-1.7,3.6-1.8,5.5c-0.7,12.2-0.2,24.4,1.5,36.5c0.3,2.4,0.8,5,2.6,6.7c1.6,1.6,4,2,6.3,2.4c24.5,4.2,47.4,3.5,72.2,1.7   c4.6-0.3,9.7-1,12.8-4.3C503.6,690.8,504.7,645.9,500.6,642.7z"/>
	<path class="st21" d="M626.8,642.7c-4-3.1-11.6-3.7-16.8-4c-24.2-1.3-48.7-1.2-72.3,4.4c-1.4,0.3-2.9,0.7-3.9,1.7   c-1.5,1.4-1.7,3.6-1.8,5.5c-0.7,12.2-0.2,24.4,1.5,36.5c0.3,2.4,0.8,5,2.6,6.7c1.6,1.6,4,2,6.3,2.4c24.5,4.2,47.4,3.5,72.2,1.7   c4.6-0.3,9.7-1,12.8-4.3C629.8,690.8,630.9,645.9,626.8,642.7z"/>
	<path class="st22" d="M404.3,656.1c-14.6-8.9-31.4-13.4-48.5-13c-3.9,0.1-3.9,6.1,0,6c16.1-0.3,31.7,3.8,45.5,12.2   C404.6,663.3,407.6,658.1,404.3,656.1z"/>
	<path class="st17" d="M657,620.2c-3.6-37.2-15-71.9-37.8-102.7c-43.3-58.5-126-88.4-193.4-60.8c-18.2,7.5-37.1,24.5-50.4,39   c-10,10.9-17.8,23.7-23.5,37.4c-16.5,39.8-15.4,97.7,5.3,135.4c37.5-31,64.3-87.2,70.8-135.4c28.6,25.1,59.5,47.6,92.3,66.8   c12.4,7.3,25.1,14.2,37.4,21.7c-1.1,0.3-2.1,0.8-3.1,1.4c-3.3,2.1-2.6,6.7,1,8c3.3,1.1,6.9,0.5,10.3,0.4c2.2-0.1,4.3,0,6.5,0   c4.3,3,8.5,6.2,12.5,9.6c24.2,20.4,42.2,48.1,51.4,78.4c1.9,6.3,10.8,6.4,12.7,0.1c0-0.1,0-0.1,0-0.2c2.6-8.9,4.6-18.1,6-27.3   c2.8-17.7,3.6-35.7,3-53.6C658,632.3,657.6,626.2,657,620.2z"/>
	<path class="st22" d="M531.9,655c-8.1-7.9-20.8-7.6-28,1.3c-2.4,3,1.8,7.2,4.2,4.2c5.2-6.3,13.6-7.1,19.5-1.3   C530.4,661.9,534.6,657.7,531.9,655z"/>
</g>
</svg>
